<?xml version="1.0" standalone="no"?>
<!DOCTYPE svg PUBLIC "-//W3C//DTD SVG 1.1//EN" "http://www.w3.org/Graphics/SVG/1.1/DTD/svg11.dtd" >
<svg xmlns="http://www.w3.org/2000/svg" xmlns:xlink="http://www.w3.org/1999/xlink" version="1.1">
<metadata></metadata>
<defs>
<font id="cera_promedium" horiz-adv-x="1167" >
<font-face units-per-em="2048" ascent="1655" descent="-393" />
<missing-glyph horiz-adv-x="573" />
<glyph unicode="&#xfb01;" horiz-adv-x="1218" d="M49 819v187h144v202q0 176 96 263.5t262 87.5q82 0 139 -19v-182q-49 6 -86 6q-98 0 -147 -39t-49 -135v-184h237v-187h-237v-819h-215v819h-144zM807 1380.5q0 59.5 43 101.5t104 42q59 0 102.5 -42t43.5 -101.5t-43 -100.5t-103 -41q-61 0 -104 41t-43 100.5zM846 0 v1006h215v-1006h-215z" />
<glyph unicode="&#xfb02;" horiz-adv-x="1218" d="M49 819v187h144v202q0 176 96 263.5t262 87.5q82 0 139 -19v-182q-49 6 -86 6q-98 0 -147 -39t-49 -135v-184h237v-187h-237v-819h-215v819h-144zM846 0v1536h215v-1536h-215z" />
<glyph horiz-adv-x="0" />
<glyph unicode="&#xd;" horiz-adv-x="681" />
<glyph unicode=" "  horiz-adv-x="573" />
<glyph unicode="&#x09;" horiz-adv-x="573" />
<glyph unicode="&#xa0;" horiz-adv-x="573" />
<glyph unicode="!" horiz-adv-x="667" d="M174 135q0 70 46 115t113.5 45t113 -45t45.5 -115q0 -68 -45.5 -113t-113 -45t-113.5 45.5t-46 112.5zM203 1352h258l-39 -891h-178z" />
<glyph unicode="&#x22;" horiz-adv-x="1024" d="M182 803l19 549h248l-101 -549h-166zM612 803l19 549h248l-101 -549h-166z" />
<glyph unicode="#" horiz-adv-x="1257" d="M55 332v184h199l41 320h-193v184h217l46 332h182l-45 -332h346l45 332h180l-45 -332h172v-184h-196l-43 -320h194v-184h-219l-45 -332h-178l45 332h-350l-46 -332h-178l45 332h-174zM432 510h348l45 332h-348z" />
<glyph unicode="$" horiz-adv-x="1099" d="M74 330l149 110q131 -207 336 -207q94 0 154.5 42t60.5 116q0 61 -44 100t-138 80l-141 56q-297 117 -297 342q0 125 81.5 210t213.5 111v244h198v-240q203 -37 311 -227l-147 -111q-53 78 -113.5 115t-140.5 37q-78 0 -133 -34t-55 -103q0 -59 40 -95t123 -73l152 -58 q150 -57 227.5 -142t77.5 -208q0 -141 -95 -232t-247 -114v-244h-198v248q-123 23 -218.5 94.5t-156.5 182.5z" />
<glyph unicode="%" horiz-adv-x="1742" d="M125 1042q0 92 46 168t125 120t173 44q92 0 170 -44t124 -119.5t46 -168.5q0 -94 -46 -169.5t-124 -119.5t-170 -44q-94 0 -173 44t-125 119.5t-46 169.5zM299 1042.5q0 -77.5 47 -129t123 -51.5q72 0 121 51.5t49 128.5q0 76 -49 128.5t-121 52.5q-74 0 -122 -51.5 t-48 -129zM395 0l774 1352h183l-777 -1352h-180zM936 311q0 94 45 170t124 120t171 44q94 0 172 -44t124 -119.5t46 -170.5q0 -92 -46 -167.5t-125 -119.5t-171 -44t-171 44t-124 119.5t-45 167.5zM1108 311q0 -78 47 -128t123 -50q72 0 120 51.5t48 126.5q0 78 -48 129.5 t-120 51.5q-76 0 -123 -50.5t-47 -130.5z" />
<glyph unicode="&#x26;" horiz-adv-x="1329" d="M98 340q0 109 64.5 201t224.5 215q-68 86 -99.5 159.5t-31.5 149.5q0 139 89 224t235 85q139 0 228 -80t89 -207q0 -94 -55.5 -180t-175.5 -180l243 -293q27 37 127 187q20 33 66 98l172 -119l-60 -86q-117 -174 -172 -242l226 -272h-256l-105 127q-84 -74 -176 -112 t-205 -38q-123 0 -221 46.5t-152.5 129.5t-54.5 187zM319 360q0 -82 60.5 -135t157.5 -53q124 0 241 111l-270 327q-115 -90 -152 -139t-37 -111zM457 1063q0 -45 22.5 -89t73.5 -110q78 61 110.5 107.5t32.5 99.5t-31.5 84t-86.5 31q-58 0 -89.5 -32t-31.5 -91z" />
<glyph unicode="'" horiz-adv-x="595" d="M182 803l19 549h248l-101 -549h-166z" />
<glyph unicode="(" horiz-adv-x="714" d="M150 618q0 369 118.5 586t302.5 303l88 -135q-139 -92 -225 -269t-86 -485q0 -549 311 -751l-88 -135q-184 86 -302.5 303t-118.5 583z" />
<glyph unicode=")" horiz-adv-x="714" d="M55 -133q311 203 312 751q0 307 -86 484.5t-226 269.5l90 135q182 -86 300 -303t118 -586q0 -367 -117.5 -583.5t-300.5 -302.5z" />
<glyph unicode="*" horiz-adv-x="897" d="M88 1020l188 135l-188 135l64 111l210 -96l23 231h127l23 -231l210 96l64 -111l-188 -135l188 -135l-64 -109l-210 97l-23 -232h-127l-23 232l-210 -97z" />
<glyph unicode="+" horiz-adv-x="1146" d="M104 557v186h369v375h209v-375h360v-186h-360v-379h-209v379h-369z" />
<glyph unicode="," horiz-adv-x="573" d="M158 -365l20 582h250l-96 -582h-174z" />
<glyph unicode="-" horiz-adv-x="704" d="M100 559v182h504v-182h-504z" />
<glyph unicode="." horiz-adv-x="573" d="M127 135.5q0 67.5 47 113.5t114.5 46t112.5 -45t45 -115q0 -68 -45 -113t-112.5 -45t-114.5 45.5t-47 113z" />
<glyph unicode="/" horiz-adv-x="1331" d="M10 -248l1071 1845h240l-1071 -1845h-240z" />
<glyph unicode="0" horiz-adv-x="1280" d="M125 688q0 307 131 496.5t385 189.5t384 -188.5t130 -497.5q0 -201 -55.5 -361.5t-171 -255t-287.5 -94.5t-287.5 94.5t-172 255t-56.5 361.5zM350 686q0 -240 71 -375t220.5 -135t219 135t69.5 375q0 489 -289 490q-291 0 -291 -490z" />
<glyph unicode="1" horiz-adv-x="798" d="M49 1198l469 154h76v-1352h-217v1096l-275 -88z" />
<glyph unicode="2" horiz-adv-x="1171" d="M94 0v49l481 518q113 119 164.5 202t51.5 169q0 102 -61.5 170t-164 68t-166 -71t-63.5 -175q0 -43 10 -105h-219q-14 55 -14 117q0 111 55 210t158.5 160.5t240.5 61.5q129 0 230.5 -55t160 -150.5t58.5 -214.5q0 -137 -73 -250.5t-214 -263.5l-237 -252h571v-188h-969z " />
<glyph unicode="3" horiz-adv-x="1112" d="M43 270l152 107q61 -94 137 -147.5t180 -53.5q121 0 198.5 70.5t77.5 185.5t-80.5 176.5t-230.5 61.5h-149v59l315 424h-504v199h842v-60l-328 -442q150 -25 254.5 -133.5t104.5 -282.5q0 -135 -67.5 -239.5t-180.5 -161t-246 -56.5q-164 0 -285.5 81t-189.5 212z" />
<glyph unicode="4" horiz-adv-x="1150" d="M37 236v59l432 1057h223l-383 -930h404v416h217v-416h184v-186h-184v-236h-217v236h-676z" />
<glyph unicode="5" horiz-adv-x="1144" d="M61 268l152 109q61 -94 140 -147.5t188 -53.5q121 0 200.5 69.5t79.5 186.5q0 115 -81 177.5t-230 62.5h-311v680h770v-195h-557v-317q80 18 172 18q121 0 226 -48t169.5 -143.5t64.5 -230.5t-67.5 -239.5t-182 -162t-247.5 -57.5q-168 0 -292 80t-194 211z" />
<glyph unicode="6" horiz-adv-x="1138" d="M92 446q0 80 23.5 149t57.5 124t103 155l338 478h256l-325 -461q27 6 59 6q117 0 219.5 -59.5t164 -163t61.5 -230.5q0 -131 -65.5 -237.5t-175.5 -168t-239 -61.5t-238.5 60.5t-174 168t-64.5 240.5zM305 444.5q0 -114.5 76 -191.5t188 -77q111 0 188 77t77 191.5 t-77 191.5t-188 77q-113 0 -188.5 -77t-75.5 -191.5z" />
<glyph unicode="7" horiz-adv-x="1050" d="M74 1157v195h927v-60l-653 -1292h-235l596 1157h-635z" />
<glyph unicode="8" horiz-adv-x="1193" d="M104 352q0 129 79 215t214 135q-111 59 -170 138.5t-59 187.5q0 164 122 255t308 91q184 0 305 -91t121 -255q0 -106 -58.5 -186t-170.5 -140q133 -49 212.5 -135t79.5 -215q0 -113 -61 -197.5t-173 -131t-255 -46.5q-145 0 -257 46.5t-174.5 131.5t-62.5 197zM324 360 q0 -92 71.5 -147t202.5 -55t200.5 55t69.5 147.5t-68.5 145.5t-203.5 102q-135 -47 -203.5 -102t-68.5 -146zM375 1020q0 -74 53 -121t168 -98q115 49 168 96t53 123q0 82 -61.5 129t-157.5 47q-98 0 -160.5 -47t-62.5 -129z" />
<glyph unicode="9" horiz-adv-x="1138" d="M92 907q0 131 65.5 237.5t175 168t238.5 61.5t239 -60.5t174.5 -168t64.5 -240.5q0 -80 -24 -148.5t-58.5 -125t-104.5 -154.5l-336 -477h-258l326 461q-27 -6 -59 -6q-115 0 -217.5 59t-164 162.5t-61.5 230.5zM305 907.5q0 -114.5 77 -191.5t189 -77q111 0 187 78 t76 190q0 115 -76 192t-187 77q-113 0 -189.5 -77t-76.5 -191.5z" />
<glyph unicode=":" horiz-adv-x="573" d="M127 135.5q0 67.5 47 113.5t114.5 46t112.5 -45t45 -115q0 -68 -45 -113t-112.5 -45t-114.5 45.5t-47 113zM127 860.5q0 67.5 47 113.5t114.5 46t112.5 -45t45 -115q0 -68 -45 -113t-112.5 -45t-114.5 45.5t-47 113z" />
<glyph unicode=";" horiz-adv-x="573" d="M127 860.5q0 67.5 47 113.5t114.5 46t112.5 -45t45 -115q0 -68 -45 -113t-112.5 -45t-114.5 45.5t-47 113zM158 -365l20 582h250l-96 -582h-174z" />
<glyph unicode="&#x3c;" horiz-adv-x="1146" d="M92 621v61l922 401v-194l-563 -238l563 -237v-195z" />
<glyph unicode="=" horiz-adv-x="1146" d="M125 340v186h899v-186h-899zM125 774v187h899v-187h-899z" />
<glyph unicode="&#x3e;" horiz-adv-x="1146" d="M133 219v195l563 237l-563 238v194l924 -401v-61z" />
<glyph unicode="?" horiz-adv-x="917" d="M70 1077q43 143 144 220t243 77q104 0 191 -44t138.5 -124t51.5 -180q0 -90 -45 -162.5t-138 -154.5q-82 -72 -113.5 -110t-31.5 -83q0 -23 8 -55h-184q-23 49 -23 94q0 63 41 118.5t121 123.5q80 72 110.5 113.5t30.5 99.5q0 72 -48 119t-117 47q-68 0 -119 -45.5 t-80 -131.5zM274 135.5q0 67.5 46.5 113.5t114 46t113.5 -45t46 -115q0 -68 -46 -113t-113.5 -45t-114 45.5t-46.5 113z" />
<glyph unicode="@" horiz-adv-x="1918" d="M88 496q0 246 120 441.5t324.5 306t452.5 110.5q238 0 431.5 -103.5t304 -280.5t110.5 -388q0 -248 -152.5 -381t-402.5 -133h-76v116q-45 -68 -122 -103.5t-169 -35.5q-117 0 -210 57.5t-146 157.5t-53 225t53 225.5t146.5 158t211.5 57.5q88 0 162 -33t119 -92v106h188 v-663q125 10 197 95t72 243q0 172 -82 308t-232.5 214t-345.5 78q-205 0 -368.5 -87t-256 -243t-92.5 -352q0 -199 91.5 -354.5t251 -242.5t356.5 -87q125 0 256 39l35 -156q-141 -55 -312 -55q-236 0 -433.5 111.5t-313 306t-115.5 434.5zM709 485q0 -113 68.5 -183.5 t170.5 -70.5q94 0 163 65.5t69 190.5t-66.5 189.5t-163.5 64.5q-102 0 -171.5 -70.5t-69.5 -185.5z" />
<glyph unicode="A" horiz-adv-x="1355" d="M45 0l596 1374h74l596 -1374h-234l-96 225h-608l-97 -225h-231zM451 412h452l-225 559z" />
<glyph unicode="B" horiz-adv-x="1265" d="M170 0v1352h473q121 0 213 -46t142.5 -128t50.5 -187q0 -78 -29 -142.5t-84 -111.5q119 -39 185.5 -129t66.5 -215q0 -113 -54.5 -203t-153.5 -140t-230 -50h-580zM383 190h348q113 0 175.5 56.5t62.5 153t-62.5 153.5t-175.5 57h-348v-420zM383 797h240q100 0 154 50 t54 134t-54 132t-154 48h-240v-364z" />
<glyph unicode="C" horiz-adv-x="1468" d="M88 675.5q0 194.5 95.5 354.5t258 252t357.5 92q186 0 338.5 -84t240.5 -227l-164 -121q-72 113 -176 173.5t-237 60.5q-137 0 -249 -64.5t-175.5 -179.5t-63.5 -256t63.5 -256t175.5 -179.5t249 -64.5q133 0 237.5 60.5t175.5 173.5l164 -121q-86 -143 -238.5 -227.5 t-340.5 -84.5q-195 0 -357.5 92.5t-258 252t-95.5 354z" />
<glyph unicode="D" horiz-adv-x="1417" d="M170 0v1352h424q221 0 387 -85t257 -237.5t91 -351.5q0 -197 -91 -350.5t-258 -240.5t-386 -87h-424zM387 195h205q156 0 272.5 61t179 172t62.5 250q0 143 -62.5 250.5t-178 167t-273.5 59.5h-205v-960z" />
<glyph unicode="E" horiz-adv-x="1165" d="M170 0v1352h889v-195h-672v-346h506v-188h-506v-428h696v-195h-913z" />
<glyph unicode="F" horiz-adv-x="1083" d="M170 0v1352h868v-195h-651v-403h537v-197h-537v-557h-217z" />
<glyph unicode="G" horiz-adv-x="1527" d="M88 675.5q0 194.5 94 354.5t258 252t361 92q176 0 319.5 -73.5t239.5 -208.5l-158 -129q-152 213 -403 213q-141 0 -252 -64.5t-172.5 -178.5t-61.5 -255q0 -143 63.5 -259t176.5 -181.5t258 -65.5q133 0 236.5 54.5t166.5 150.5v145h-415v193h633v-381 q-90 -162 -258 -259.5t-373 -97.5q-199 0 -362 92.5t-257 252t-94 354z" />
<glyph unicode="H" horiz-adv-x="1456" d="M170 0v1352h217v-539h680v539h217v-1352h-217v618h-680v-618h-217z" />
<glyph unicode="I" horiz-adv-x="557" d="M170 0v1352h217v-1352h-217z" />
<glyph unicode="J" horiz-adv-x="780" d="M43 0v186q92 -10 139 -10q106 0 158.5 40t52.5 142v994h217v-1016q0 -180 -100 -269.5t-281 -89.5q-88 0 -186 23z" />
<glyph unicode="K" horiz-adv-x="1333" d="M170 0v1352h217v-1352h-217zM393 719l568 633h266l-561 -633l622 -719h-268z" />
<glyph unicode="L" horiz-adv-x="1054" d="M170 0v1352h217v-1157h619v-195h-836z" />
<glyph unicode="M" horiz-adv-x="1624" d="M170 0v1374h76l567 -756l567 756h74v-1374h-217v848l-387 -508h-74l-389 510v-850h-217z" />
<glyph unicode="N" horiz-adv-x="1456" d="M170 0v1374h76l821 -934v912h217v-1375h-74l-823 938v-915h-217z" />
<glyph unicode="O" horiz-adv-x="1597" d="M88 675.5q0 194.5 95.5 354.5t257 252t356.5 92q193 0 356.5 -92t258.5 -252t95 -354.5t-95 -354t-259 -252t-356 -92.5q-195 0 -358 92.5t-257 252t-94 354zM313 678q0 -143 62.5 -258t173 -179.5t250.5 -64.5q137 0 247.5 64.5t174 179.5t63.5 258q0 139 -63.5 254 t-174 179.5t-247.5 64.5q-139 0 -250 -64.5t-173.5 -178.5t-62.5 -255z" />
<glyph unicode="P" horiz-adv-x="1193" d="M170 0v1352h494q135 0 239.5 -52.5t161.5 -146.5t57 -215t-57 -215t-161.5 -147.5t-239.5 -53.5h-277v-522h-217zM387 715h272q115 0 177.5 60.5t62.5 160.5t-62.5 161.5t-177.5 61.5h-272v-444z" />
<glyph unicode="Q" horiz-adv-x="1597" d="M88 675.5q0 194.5 95.5 354.5t257 252t356.5 92q193 0 356.5 -92t258.5 -252t95 -354q0 -172 -75.5 -318.5t-208.5 -242.5q139 -184 317 -273.5t414 -89.5q53 0 192 8v-172q-116 -22 -218 -22h-9q-270 0 -493.5 115.5t-381.5 338.5q-117 -43 -247 -43q-195 0 -358 92.5 t-257 252t-94 354zM313 678q0 -143 62.5 -258t173 -179.5t250.5 -64.5q137 0 247.5 64.5t174 179.5t63.5 256t-63.5 256t-174 179.5t-249.5 64.5q-137 0 -248 -64.5t-173.5 -178.5t-62.5 -255z" />
<glyph unicode="R" horiz-adv-x="1292" d="M170 0v1352h494q135 0 239.5 -52.5t161.5 -146.5t57 -215q0 -133 -69.5 -233.5t-190.5 -147.5l406 -557h-248l-385 522h-248v-522h-217zM387 715h272q113 0 176.5 61.5t63.5 159.5q0 100 -63.5 161.5t-176.5 61.5h-272v-444z" />
<glyph unicode="S" horiz-adv-x="1144" d="M74 270l153 117q68 -98 153 -156.5t202 -58.5q104 0 168.5 51t64.5 137q0 72 -46 113t-153 90l-149 70q-147 68 -231 153.5t-84 221.5q0 109 57 192.5t154.5 128.5t214.5 45q143 0 257.5 -66.5t178.5 -174.5l-152 -117q-53 80 -125.5 122t-158.5 42t-145.5 -42 t-59.5 -122q0 -49 22.5 -82t59.5 -54.5t106 -56.5l152 -69q164 -76 243.5 -164t79.5 -221q0 -117 -58 -206t-161.5 -137.5t-232.5 -48.5q-166 0 -299 78t-211 215z" />
<glyph unicode="T" horiz-adv-x="1193" d="M33 1157v195h1128v-195h-456v-1157h-218v1157h-454z" />
<glyph unicode="U" horiz-adv-x="1421" d="M156 547v805h217v-820q0 -172 95 -264t245 -92q147 0 241.5 92t94.5 264v820h217v-805q0 -176 -72 -305t-198 -197t-283 -68q-162 0 -288 68t-197.5 197t-71.5 305z" />
<glyph unicode="V" horiz-adv-x="1355" d="M45 1352h244l389 -940l389 940h244l-596 -1375h-74z" />
<glyph unicode="W" horiz-adv-x="2152" d="M74 1352h239l338 -914l387 936h76l389 -936l338 914h238l-527 -1375h-71l-404 959l-403 -959h-74z" />
<glyph unicode="X" horiz-adv-x="1243" d="M45 0l457 690l-428 662h250l299 -478l295 478h247l-420 -662l451 -690h-248l-327 504l-326 -504h-250z" />
<glyph unicode="Y" horiz-adv-x="1269" d="M59 1352h242l334 -588l336 588h239l-467 -807v-545h-217v545z" />
<glyph unicode="Z" horiz-adv-x="1204" d="M53 0v59l750 1098h-662v195h1000v-60l-752 -1097h754v-195h-1090z" />
<glyph unicode="[" horiz-adv-x="716" d="M197 -268v1761h428v-180h-236v-1397h236v-184h-428z" />
<glyph unicode="\" horiz-adv-x="1331" d="M10 1597h240l1071 -1845h-240z" />
<glyph unicode="]" horiz-adv-x="716" d="M90 -84h238v1397h-238v180h430v-1761h-430v184z" />
<glyph unicode="^" horiz-adv-x="1073" d="M113 573l387 799h73l388 -799h-213l-211 443l-211 -443h-213z" />
<glyph unicode="_" horiz-adv-x="1032" d="M80 -143h872v-174h-872v174z" />
<glyph unicode="`" horiz-adv-x="1228" d="M401 1559v38h263l161 -434h-159z" />
<glyph unicode="a" horiz-adv-x="1097" d="M82 268q0 131 100.5 209t270.5 78h284v66q0 104 -56 159.5t-159 55.5q-84 0 -149.5 -37t-128.5 -113l-125 127q76 109 184.5 162t239.5 53q186 0 298.5 -108.5t112.5 -311.5v-608h-200v113q-55 -66 -137 -101t-185 -35q-158 0 -254 80t-96 211zM301 276q0 -63 49 -98 t127 -35q109 0 184.5 68t75.5 170v18h-258q-86 0 -132 -30.5t-46 -92.5z" />
<glyph unicode="b" horiz-adv-x="1292" d="M156 0v1536h215v-653q57 70 144 107.5t192 37.5q141 0 253.5 -68.5t176 -189.5t63.5 -268.5t-63.5 -267t-176 -188.5t-251.5 -69q-111 0 -203 42t-150 120v-139h-200zM369 501.5q0 -108.5 43 -182t111.5 -109.5t148.5 -36q86 0 156.5 42t110.5 117t40 171t-41 170 t-110.5 115.5t-155.5 41.5q-80 0 -148.5 -35.5t-111.5 -110.5t-43 -183.5z" />
<glyph unicode="c" horiz-adv-x="1130" d="M92 503.5q0 145.5 70.5 265.5t193.5 189.5t269 69.5q139 0 248.5 -62.5t175.5 -170.5l-152 -119q-108 153 -268 153h-2q-90 0 -162 -43t-113 -117.5t-41 -164.5q0 -92 41 -167t113 -118t162 -43q160 0 270 152l152 -117q-68 -109 -177.5 -171.5t-246.5 -62.5 q-148 0 -270 70t-192.5 190.5t-70.5 266z" />
<glyph unicode="d" horiz-adv-x="1292" d="M92 501.5q0 147.5 63.5 268.5t176 189.5t252.5 68.5q104 0 191 -38t145 -107v653h217v-1536h-201v143q-55 -78 -147.5 -122t-204.5 -44q-141 0 -253 69t-175.5 188.5t-63.5 267zM311 504q0 -96 40 -171t110.5 -117t159.5 -42q79 0 148 36t112 109.5t43 182t-43 182.5 t-113 110.5t-147 36.5q-86 0 -157 -41.5t-112 -115.5t-41 -170z" />
<glyph unicode="e" d="M92 502q0 145 68.5 266t188.5 190.5t263 69.5q133 0 238.5 -60.5t166 -165t60.5 -235.5q0 -63 -16 -135h-750q20 -123 109.5 -193.5t218.5 -70.5q158 0 293 119l102 -148q-172 -162 -401 -162q-154 0 -277 69t-193.5 188.5t-70.5 267.5zM315 600h547q-2 115 -76.5 180.5 t-181 65.5t-185.5 -66.5t-104 -179.5z" />
<glyph unicode="f" horiz-adv-x="659" d="M49 819v187h144v202q0 176 96 263.5t262 87.5q82 0 139 -19v-182q-49 6 -86 6q-98 0 -147 -39t-49 -135v-184h237v-187h-237v-819h-215v819h-144z" />
<glyph unicode="g" horiz-adv-x="1298" d="M98 524.5q0 145.5 63.5 260t176.5 179t250 64.5q115 0 208 -44t148 -122v144h199v-902q0 -238 -137.5 -366.5t-366.5 -128.5q-150 0 -271.5 53t-211.5 137l118 150q84 -68 167 -106t186 -38q137 0 219 73t82 214v72q-57 -70 -146.5 -107t-193.5 -37q-139 0 -251 65 t-175.5 179.5t-63.5 260zM319 524q0 -141 88.5 -228t219.5 -87q125 0 214 82t89 235.5t-89 231.5t-214 78q-131 0 -219.5 -86t-88.5 -226z" />
<glyph unicode="h" horiz-adv-x="1177" d="M156 0v1536h215v-631q51 59 125.5 91t165.5 32q172 0 272 -110.5t100 -288.5v-629h-215v598q0 104 -59.5 168.5t-159.5 64.5t-164.5 -65.5t-64.5 -167.5v-598h-215z" />
<glyph unicode="i" horiz-adv-x="526" d="M117 1380.5q0 59.5 43 101.5t104 42q59 0 102.5 -42t43.5 -101.5t-43 -100.5t-103 -41q-61 0 -104 41t-43 100.5zM156 0v1006h215v-1006h-215z" />
<glyph unicode="j" horiz-adv-x="526" d="M-125 -190q49 -6 88 -7q96 0 144.5 40t48.5 134v1029h215v-1047q0 -176 -95.5 -263t-261.5 -87q-84 0 -139 18v183zM117 1380.5q0 59.5 43 101.5t104 42q59 0 102.5 -42t43.5 -101.5t-43 -100.5t-103 -41q-61 0 -104 41t-43 100.5z" />
<glyph unicode="k" horiz-adv-x="1091" d="M156 0v1536h215v-1536h-215zM377 565l393 441h266l-405 -443l440 -563h-258z" />
<glyph unicode="l" horiz-adv-x="526" d="M156 0v1536h215v-1536h-215z" />
<glyph unicode="m" horiz-adv-x="1808" d="M156 0v1006h200v-95q53 55 127 86t164 31q104 0 182 -42t123 -116q55 72 144.5 115t195.5 43q174 0 273.5 -109.5t99.5 -289.5v-629h-217v598q0 106 -56.5 169.5t-152.5 63.5q-98 0 -159.5 -63t-61.5 -160v-608h-215v598q0 104 -57.5 168.5t-153.5 64.5 q-98 0 -159.5 -64.5t-61.5 -168.5v-598h-215z" />
<glyph unicode="n" horiz-adv-x="1177" d="M156 0v1006h200v-99q115 121 301 121q177 0 277 -109.5t100 -289.5v-629h-215v600q0 104 -60.5 169t-158.5 65q-100 0 -164.5 -66t-64.5 -168v-600h-215z" />
<glyph unicode="o" horiz-adv-x="1247" d="M92 504q0 145 70.5 265t192.5 189.5t268 69.5q147 0 270 -69.5t193.5 -190.5t70.5 -264.5t-70.5 -264t-193.5 -191.5t-270 -71q-146 0 -268 71t-192.5 191.5t-70.5 264.5zM311 502q0 -92 41 -167t112 -117t159 -42t159.5 43t112.5 118t41 165q0 92 -41 167.5 t-112.5 118.5t-157.5 43q-88 0 -160 -43t-113 -118.5t-41 -167.5z" />
<glyph unicode="p" horiz-adv-x="1292" d="M156 -369v1375h200v-142q55 78 147.5 121t203.5 43q141 0 253.5 -68.5t176 -188.5t63.5 -267q0 -150 -63.5 -269.5t-176 -188.5t-253.5 -69q-102 0 -189.5 38t-146.5 108v-492h-215zM369 503.5q0 -108.5 43 -183t111.5 -110.5t148.5 -36q86 0 155.5 42t110.5 116t41 170 t-40 171t-110.5 116.5t-156.5 41.5q-80 0 -148.5 -35.5t-111.5 -109.5t-43 -182.5z" />
<glyph unicode="q" horiz-adv-x="1292" d="M92 504q0 147 63.5 267t175 188.5t253.5 68.5q113 0 205 -44t147 -122v144h201v-1375h-217v490q-57 -70 -144.5 -107t-191.5 -37q-139 0 -252 69t-176.5 188.5t-63.5 269.5zM311 502q0 -96 41 -170t112 -116t157 -42q77 0 147 37t113 110.5t43 182t-43 182.5t-112 109.5 t-148 35.5q-88 0 -159 -41.5t-111 -117.5t-40 -170z" />
<glyph unicode="r" horiz-adv-x="768" d="M156 0v1006h200v-132q53 68 130 105t163 37q45 0 82 -10v-191h-65q-127 0 -211 -72.5t-84 -205.5v-537h-215z" />
<glyph unicode="s" horiz-adv-x="931" d="M61 172l123 135q66 -70 134.5 -106.5t148.5 -36.5q70 0 116 28.5t46 83.5q0 45 -34 70t-108 55l-102 43q-133 55 -197.5 121t-64.5 172q0 135 100.5 213t253.5 78q217 0 348 -156l-116 -133q-47 49 -108.5 76t-127.5 27q-63 0 -100 -24.5t-37 -72.5q0 -39 29.5 -63.5 t103.5 -54.5l96 -39q143 -59 209 -128t66 -175q0 -145 -106.5 -226.5t-266.5 -81.5q-129 0 -233.5 53.5t-172.5 141.5z" />
<glyph unicode="t" horiz-adv-x="815" d="M41 819v187h164v264h217v-264h299v-187h-299v-473q0 -96 50 -135t149 -39q45 0 133 10v-182q-100 -23 -179 -23q-174 0 -272 87.5t-98 263.5v491h-164z" />
<glyph unicode="u" d="M145 422v584h213v-600q0 -104 64.5 -167t163.5 -63q94 0 157.5 62.5t63.5 167.5v600h215v-584q0 -133 -57.5 -234.5t-156.5 -156t-222 -54.5q-125 0 -225.5 54.5t-158 156t-57.5 234.5z" />
<glyph unicode="v" horiz-adv-x="1124" d="M39 1006h229l295 -666l293 666h229l-485 -1029h-74z" />
<glyph unicode="w" horiz-adv-x="1748" d="M39 1006h229l264 -658l306 680h73l310 -672l260 650h229l-446 -1029h-74l-316 670l-315 -670h-74z" />
<glyph unicode="x" horiz-adv-x="1052" d="M29 0l372 522l-346 484h246l225 -332l224 332h245l-348 -486l375 -520h-246l-252 369l-250 -369h-245z" />
<glyph unicode="y" horiz-adv-x="1124" d="M39 1006h231l289 -732l297 732h229l-489 -1121q-63 -143 -151.5 -209.5t-217.5 -66.5q-84 0 -166 20v183q94 -8 119 -9q76 0 129 32t90 116l41 94z" />
<glyph unicode="z" horiz-adv-x="944" d="M45 0v59l526 760h-479v187h803v-62l-528 -758h532v-186h-854z" />
<glyph unicode="{" horiz-adv-x="827" d="M100 520v187h123q117 0 117 110q0 35 -21 162q-29 156 -28 235q0 279 299 279h147v-180h-108q-146 0 -146 -152q0 -51 25 -182q25 -139 24 -191q0 -72 -31.5 -112.5t-97.5 -63.5q68 -23 98.5 -62.5t30.5 -111.5q0 -51 -24 -190q-25 -131 -25 -182q0 -154 146 -154h108 v-180h-147q-299 0 -299 280q0 82 28 238q20 123 21 158q0 113 -117 112h-123z" />
<glyph unicode="|" horiz-adv-x="679" d="M250 -248v1845h180v-1845h-180z" />
<glyph unicode="}" horiz-adv-x="827" d="M90 -88h111q143 0 143 154q0 51 -25 182q-25 139 -24 190q0 72 30.5 112t98.5 62q-66 23 -97.5 64t-31.5 112q0 51 24 191q25 131 25 182q0 152 -143 152h-111v180h148q299 0 299 -279q0 -80 -29 -235q-20 -127 -21 -162q0 -57 30 -83.5t89 -26.5h121v-187h-121 q-59 0 -89 -26.5t-30 -85.5q0 -35 21 -158q29 -156 29 -238q0 -281 -299 -280h-148v180z" />
<glyph unicode="~" horiz-adv-x="1146" d="M100 600q0 109 62.5 181.5t159.5 72.5q78 0 172 -53l186 -115q47 -27 71.5 -38t49.5 -11q35 0 53 24.5t18 61.5v51h170q4 -57 5 -78q0 -111 -62.5 -182.5t-161.5 -71.5q-84 1 -170 54l-186 112q-84 51 -121 51q-35 0 -54.5 -23.5t-19.5 -62.5v-49h-168q-4 53 -4 76z" />
<glyph unicode="&#xa1;" horiz-adv-x="667" d="M174 868q0 70 46 115t113.5 45t113 -45t45.5 -115q0 -68 -46.5 -112.5t-111.5 -44.5q-68 0 -114 45t-46 112zM203 -369l41 912h178l41 -912h-260z" />
<glyph unicode="&#xa2;" horiz-adv-x="1136" d="M72 670q0 184 111.5 324.5t287.5 183.5v356h201v-344q115 -14 207 -73.5t149 -153.5l-149 -119q-55 72 -121 111.5t-152 39.5q-90 0 -161.5 -43t-112.5 -116.5t-41 -165.5t41 -167t112.5 -118t161.5 -43q162 0 271 154l149 -119q-57 -96 -148.5 -155.5t-205.5 -74.5v-342 h-201v355q-176 43 -287.5 183t-111.5 327z" />
<glyph unicode="&#xa3;" horiz-adv-x="1122" d="M100 0v49q131 90 202 182.5t71 206.5q0 29 -2 43h-250v187h182q-8 16 -42 79.5t-52.5 127t-18.5 124.5q0 111 54.5 197t149.5 132t214 46q164 0 280 -90t163 -262l-187 -68q-68 221 -243 222q-98 0 -153.5 -59.5t-55.5 -151.5q0 -57 20.5 -109.5t61.5 -122.5 q31 -55 34 -65h326v-187h-266q2 -12 2 -41q0 -71 -23.5 -136.5t-68.5 -117.5h534v-186h-932z" />
<glyph unicode="&#xa4;" horiz-adv-x="1329" d="M45 180l217 223q-88 121 -88 273q0 150 88 270l-217 221l131 129l221 -223q119 74 265 74q150 0 266 -76l225 225l131 -129l-221 -219q88 -121 88 -272q0 -149 -88 -270l221 -226l-129 -129l-225 230q-121 -76 -268 -76q-145 0 -267 74l-219 -228zM395 674 q0 -117 75 -194t192 -77q114 0 191 78t77 193q0 119 -77 196.5t-191 77.5q-117 0 -192 -77.5t-75 -196.5z" />
<glyph unicode="&#xa5;" horiz-adv-x="1177" d="M14 1352h242l334 -486l334 486h241l-417 -598h335v-183h-385v-157h385v-181h-385v-233h-217v233h-383v181h383v157h-383v183h334z" />
<glyph unicode="&#xa6;" horiz-adv-x="679" d="M250 -248v615h180v-615h-180zM250 983v614h180v-614h-180z" />
<glyph unicode="&#xa7;" horiz-adv-x="1208" d="M66 762q0 106 65.5 178t179.5 100q-2 10 -2 35q0 88 44 159t125 111.5t190 40.5q115 0 211 -50t163 -148l-145 -121q-53 66 -109.5 97.5t-125.5 31.5q-68 0 -105 -29.5t-37 -87t34 -97.5t80 -76t62 -48l203 -153q125 -90 184.5 -166t59.5 -172q0 -107 -65.5 -178.5 t-180.5 -100.5q2 -10 2 -35q0 -135 -97 -223t-259 -88q-117 0 -213.5 50t-163.5 149l145 118q53 -66 109.5 -97.5t126.5 -31.5q68 0 104.5 31t36.5 88q0 45 -21.5 79t-51 59.5t-103.5 80.5l-203 156q-125 90 -184 166t-59 172zM276 764q0 -43 31 -80t125 -109l203 -153 q141 -100 199 -180q100 39 100 123q0 43 -33 79.5t-125 106.5l-209 160q-137 100 -192 176q-98 -37 -99 -123z" />
<glyph unicode="&#xa8;" horiz-adv-x="1228" d="M244 1380q0 55 42 95.5t99 40.5t97 -39t40 -97q0 -53 -40 -93t-97 -40t-99 40t-42 93zM705 1380q0 55 41.5 95.5t99.5 40.5q55 0 96 -40t41 -96q0 -53 -41 -93t-96 -40q-58 0 -99.5 40t-41.5 93z" />
<glyph unicode="&#xa9;" horiz-adv-x="1597" d="M88 675.5q0 194.5 96.5 354.5t259 252t353 92t354.5 -92t260 -253t96 -353q0 -195 -96 -354.5t-260 -252t-354.5 -92.5t-353 92.5t-259 252t-96.5 354zM240 676q0 -164 75.5 -292t203.5 -198.5t277.5 -70.5t278.5 70.5t206 198.5t77 292t-77 292t-206 198.5t-278.5 70.5 t-277.5 -70.5t-203.5 -198.5t-75.5 -292zM426 675.5q0 108.5 51 198t140.5 139.5t197.5 50q94 0 174 -42t137 -118l-122 -106q-76 102 -185 102q-94 0 -153.5 -63.5t-59.5 -159.5q0 -94 59.5 -157.5t151.5 -63.5q113 0 187 100l122 -106q-57 -74 -137 -116t-176 -42 q-106 0 -195.5 50t-140.5 138t-51 196.5z" />
<glyph unicode="&#xaa;" horiz-adv-x="739" d="M61 678q0 88 64.5 137t175.5 49h158v29q0 53 -31 82t-90 29q-47 0 -87 -18.5t-85 -55.5l-78 112q117 111 268 111q127 0 201 -70.5t74 -201.5v-381h-160v55q-70 -70 -188 -70q-104 0 -163 53.5t-59 139.5zM240 684q0 -35 24.5 -52.5t65.5 -17.5q55 0 92 33t37 86v21h-129 q-43 0 -66.5 -19.5t-23.5 -50.5z" />
<glyph unicode="&#xab;" horiz-adv-x="1126" d="M70 526v60l381 407l139 -123l-283 -313l283 -317l-139 -121zM535 526v60l380 407l140 -123l-283 -313l283 -317l-140 -121z" />
<glyph unicode="&#xac;" horiz-adv-x="1146" d="M100 557v186h879v-540h-207v354h-672z" />
<glyph unicode="&#xad;" horiz-adv-x="704" d="M100 559v182h504v-182h-504z" />
<glyph unicode="&#xae;" horiz-adv-x="1171" d="M78 891q0 139 68.5 259t186.5 189.5t255 69.5t252.5 -69.5t184.5 -189.5t69 -259t-69 -258t-184.5 -188.5t-252.5 -69.5t-255 69.5t-186.5 188.5t-68.5 258zM201 893q0 -113 51 -204t139 -144t197 -53q106 0 195 52t140.5 144t51.5 205q0 111 -51.5 203t-140.5 144 t-195 52q-109 0 -197 -52t-139 -144t-51 -203zM385 635v514h211q84 0 140.5 -48t56.5 -128q0 -49 -22.5 -86t-61.5 -60l141 -192h-145l-123 162h-66v-162h-131zM516 911h78q29 0 46 16.5t17 43.5q0 29 -17 46t-46 17h-78v-123z" />
<glyph unicode="&#xaf;" horiz-adv-x="1228" d="M319 1294v172h590v-172h-590z" />
<glyph unicode="&#xb0;" horiz-adv-x="739" d="M57 1067q0 84 42 154.5t113 111.5t157 41t157.5 -41t113.5 -111.5t42 -154.5t-42 -154.5t-113.5 -111.5t-157.5 -41t-157 41t-113 111.5t-42 154.5zM215 1067q0 -66 45 -112t109 -46q67 0 111 45t44 113t-44 113t-111 45q-63 0 -108.5 -46t-45.5 -112z" />
<glyph unicode="&#xb1;" horiz-adv-x="1146" d="M125 0v180h899v-180h-899zM125 641v180h344v297h211v-297h344v-180h-344v-309h-211v309h-344z" />
<glyph unicode="&#xb2;" horiz-adv-x="770" d="M70 745v37l303 328q61 66 90 114t29 103t-33 92t-86 37q-55 0 -89 -37t-34 -96q0 -14 4 -63h-168q-8 33 -8 73q0 72 37 135.5t103.5 103.5t154.5 40q127 0 210 -77t83 -194q0 -86 -46.5 -160.5t-136.5 -170.5l-106 -111h313v-154h-620z" />
<glyph unicode="&#xb3;" horiz-adv-x="731" d="M31 922l119 84q35 -57 78.5 -88t103.5 -31q66 0 107.5 37t41.5 100q0 61 -45 93t-131 32h-92v43l180 252h-299v153h545v-47l-188 -266q84 -20 144 -88t60 -172q0 -86 -43 -152.5t-115.5 -103.5t-158.5 -37q-104 0 -184 52.5t-123 138.5z" />
<glyph unicode="&#xb4;" horiz-adv-x="1228" d="M401 1163l162 434h262v-38l-264 -396h-160z" />
<glyph unicode="&#xb5;" horiz-adv-x="1232" d="M156 -369v1375h215v-590q0 -106 62.5 -174t160.5 -68q100 0 162.5 67.5t62.5 174.5v590h215v-691q0 -72 24.5 -105.5t78.5 -33.5l57 4v-180q-59 -16 -127 -16q-147 0 -205 112q-45 -57 -109.5 -88t-142.5 -31q-150 0 -239 107v-453h-215z" />
<glyph unicode="&#xb6;" horiz-adv-x="1204" d="M74 911q0 133 64.5 232.5t177 154t253.5 54.5h123v-887h-123q-139 0 -252.5 55t-178 156.5t-64.5 234.5zM485 -184q37 -4 54 -4q43 -6 79 -7q100 0 150.5 42t50.5 145v1360h215v-1381q0 -186 -97 -274t-275 -88q-79 -1 -177 22v185z" />
<glyph unicode="&#xb7;" horiz-adv-x="573" d="M127 649.5q0 67.5 47 113.5t114.5 46t112.5 -45t45 -115q0 -68 -45 -112.5t-112.5 -44.5t-114.5 45t-47 112.5z" />
<glyph unicode="&#xb8;" horiz-adv-x="1228" d="M395 -225q74 -6 117 -6q66 0 105.5 31.5t39.5 93.5q0 66 -49 135l88 43q63 -33 100.5 -89.5t37.5 -127.5q0 -104 -79 -175t-214 -71q-68 0 -146 18v148z" />
<glyph unicode="&#xb9;" horiz-adv-x="739" d="M92 745v154h213v545h-201v153h371v-698h180v-154h-563z" />
<glyph unicode="&#xba;" horiz-adv-x="821" d="M70 817q0 94 45 170t122.5 120t172 44t172 -44t124 -120t46.5 -170q0 -92 -46.5 -168t-125 -120t-170.5 -44q-95 0 -172.5 44t-122.5 120t-45 168zM242 817q0 -78 46 -127t121.5 -49t123 49t47.5 127t-47.5 128t-123 50t-121.5 -49t-46 -129z" />
<glyph unicode="&#xbb;" horiz-adv-x="1126" d="M72 240l282 317l-282 313l139 123l381 -407v-60l-381 -407zM537 240l282 317l-282 313l139 123l381 -407v-60l-381 -407z" />
<glyph unicode="&#xbc;" horiz-adv-x="1865" d="M92 500v153h213v545h-201v154h371v-699h180v-153h-563zM510 0l776 1352h182l-776 -1352h-182zM1145 141v45l260 666h174l-225 -571h219l2 245h154v-245h108v-140h-108v-141h-156v141h-428z" />
<glyph unicode="&#xbd;" horiz-adv-x="1939" d="M92 500v153h213v545h-201v154h371v-699h180v-153h-563zM510 0l776 1352h182l-776 -1352h-182zM1237 0v37l303 328q61 66 90 113.5t29 103t-33 92.5t-86 37q-55 0 -89 -37t-34 -96q0 -14 4 -64h-168q-8 33 -8 74q0 72 37 135t103.5 103t154.5 40q127 0 210 -76.5 t83 -193.5q0 -86 -46 -161t-136 -171l-107 -110h314v-154h-621z" />
<glyph unicode="&#xbe;" horiz-adv-x="1785" d="M31 676l119 84q35 -57 78.5 -88t103.5 -31q66 0 107.5 37t41.5 100q0 61 -45 93t-131 32h-92v43l180 252h-299v154h545v-47l-188 -267q84 -20 144 -87.5t60 -172.5q0 -86 -43 -152.5t-115.5 -103.5t-158.5 -37q-104 0 -184 52.5t-123 138.5zM430 0l776 1352h183 l-777 -1352h-182zM1065 141v45l260 666h174l-225 -571h219l2 245h154v-245h108v-140h-108v-141h-156v141h-428z" />
<glyph unicode="&#xbf;" horiz-adv-x="915" d="M80 -35q0 100 46 173t136 151q80 72 112 112.5t32 87.5q0 33 -7 54h187q20 -49 20 -92q0 -70 -41 -123.5t-123 -126.5q-76 -70 -108.5 -118t-32.5 -106q0 -76 49 -123t119 -47q137 0 199 177l178 -78q-41 -143 -141.5 -220t-241.5 -77q-105 0 -193 45t-139 127t-51 184z M322 868.5q0 67.5 46 113.5t113.5 46t113.5 -45t46 -115q0 -68 -46 -113.5t-114 -45.5q-65 0 -112 46t-47 113.5z" />
<glyph unicode="&#xc0;" horiz-adv-x="1355" d="M45 0l596 1374h74l596 -1374h-234l-96 225h-608l-97 -225h-231zM336 1825v39h262l162 -381h-160zM451 412h452l-225 559z" />
<glyph unicode="&#xc1;" horiz-adv-x="1355" d="M45 0l596 1374h74l596 -1374h-234l-96 225h-608l-97 -225h-231zM451 412h452l-225 559zM594 1483l162 381h262v-39l-264 -342h-160z" />
<glyph unicode="&#xc2;" horiz-adv-x="1355" d="M45 0l596 1374h74l596 -1374h-234l-96 225h-608l-97 -225h-231zM305 1483l303 381h137l304 -381h-166l-205 192l-207 -192h-166zM451 412h452l-225 559z" />
<glyph unicode="&#xc3;" horiz-adv-x="1355" d="M45 0l596 1374h74l596 -1374h-234l-96 225h-608l-97 -225h-231zM305 1583q0 104 58.5 172t148.5 68q74 0 147 -45l68 -41q8 -4 26.5 -15.5t34 -16.5t29.5 -5q29 0 43 19.5t14 52.5v30h173q4 -37 4 -59q0 -106 -58.5 -173t-146.5 -67q-72 0 -152 47l-65 37 q-31 18 -51.5 27.5t-38.5 9.5q-29 0 -43.5 -20.5t-14.5 -53.5v-26h-172q-4 37 -4 59zM451 412h452l-225 559z" />
<glyph unicode="&#xc4;" horiz-adv-x="1355" d="M45 0l596 1374h74l596 -1374h-234l-96 225h-608l-97 -225h-231zM287 1663q0 55 42 94t97 39q59 0 99 -38t40 -95q0 -53 -41 -93t-98 -40q-55 0 -97 40t-42 93zM451 412h452l-225 559zM788 1661q0 55 42 95t98 40q57 0 98 -39t41 -96q0 -53 -41 -93t-98 -40q-56 0 -98 40 t-42 93z" />
<glyph unicode="&#xc5;" horiz-adv-x="1355" d="M45 0l596 1374h74l596 -1374h-234l-96 225h-608l-97 -225h-231zM434 1642q0 98 68.5 167t173 69t174.5 -68.5t70 -167.5q0 -100 -70 -167.5t-174.5 -67.5t-173 67.5t-68.5 167.5zM451 412h452l-225 559zM584 1642.5q0 -40.5 26.5 -67.5t67.5 -27q39 0 65.5 27t26.5 67.5 t-26.5 67.5t-65.5 27q-41 0 -67.5 -27t-26.5 -67.5z" />
<glyph unicode="&#xc6;" horiz-adv-x="1712" d="M18 0l701 1352h887v-195h-637l57 -346h416v-188h-385l71 -428h502v-195h-684l-39 225h-536l-119 -225h-234zM467 412h407l-98 622z" />
<glyph unicode="&#xc7;" horiz-adv-x="1468" d="M88 675.5q0 194.5 95.5 354.5t258 252t357.5 92q186 0 338.5 -84t240.5 -227l-164 -121q-72 113 -176 173.5t-237 60.5q-137 0 -249 -64.5t-175.5 -179.5t-63.5 -256t63.5 -256t175.5 -179.5t249 -64.5q133 0 237.5 60.5t175.5 173.5l164 -121q-86 -143 -238.5 -227.5 t-340.5 -84.5q-195 0 -357.5 92.5t-258 252t-95.5 354zM539 -225q74 -6 116 -6q66 0 106 31.5t40 93.5q0 66 -49 135l88 43q63 -33 100 -89.5t37 -127.5q0 -104 -79 -175t-214 -71q-67 0 -145 18v148z" />
<glyph unicode="&#xc8;" horiz-adv-x="1165" d="M170 0v1352h889v-195h-672v-346h506v-188h-506v-428h696v-195h-913zM270 1825v39h262l162 -381h-159z" />
<glyph unicode="&#xc9;" horiz-adv-x="1165" d="M170 0v1352h889v-195h-672v-346h506v-188h-506v-428h696v-195h-913zM528 1483l162 381h262v-39l-264 -342h-160z" />
<glyph unicode="&#xca;" horiz-adv-x="1165" d="M170 0v1352h889v-195h-672v-346h506v-188h-506v-428h696v-195h-913zM240 1483l303 381h137l303 -381h-166l-205 192l-206 -192h-166z" />
<glyph unicode="&#xcb;" horiz-adv-x="1165" d="M170 0v1352h889v-195h-672v-346h506v-188h-506v-428h696v-195h-913zM221 1663q0 55 42 94t97 39q59 0 99.5 -38t40.5 -95q0 -53 -41 -93t-99 -40q-55 0 -97 40t-42 93zM723 1661q0 55 42 95t97 40q57 0 98 -39t41 -96q0 -53 -40.5 -93t-98.5 -40q-55 0 -97 40t-42 93z " />
<glyph unicode="&#xcc;" horiz-adv-x="557" d="M-61 1825v39h262l161 -381h-159zM170 0v1352h217v-1352h-217z" />
<glyph unicode="&#xcd;" horiz-adv-x="557" d="M170 0v1352h217v-1352h-217zM197 1483l161 381h263v-39l-265 -342h-159z" />
<glyph unicode="&#xce;" horiz-adv-x="557" d="M-92 1483l303 381h137l303 -381h-166l-204 192l-207 -192h-166zM170 0v1352h217v-1352h-217z" />
<glyph unicode="&#xcf;" horiz-adv-x="557" d="M-111 1663q0 55 42 94t98 39q59 0 99 -38t40 -95q0 -53 -41 -93t-98 -40q-56 0 -98 40t-42 93zM170 0v1352h217v-1352h-217zM391 1661q0 55 42 95t97 40q57 0 98.5 -39t41.5 -96q0 -53 -41 -93t-99 -40q-55 0 -97 40t-42 93z" />
<glyph unicode="&#xd0;" horiz-adv-x="1417" d="M-12 543v184h182v625h424q221 0 387 -85t257 -237.5t91 -351.5q0 -197 -91 -350.5t-258 -240.5t-386 -87h-424v543h-182zM387 195h205q156 0 272.5 61t179 172t62.5 250q0 143 -62.5 250.5t-178 167t-273.5 59.5h-205v-428h246v-184h-246v-348z" />
<glyph unicode="&#xd1;" horiz-adv-x="1456" d="M170 0v1374h76l821 -934v912h217v-1375h-74l-823 938v-915h-217zM354 1583q0 104 58.5 172t148.5 68q74 0 148 -45l67 -41q8 -4 26.5 -15.5t34 -16.5t29.5 -5q29 0 43.5 19.5t14.5 52.5v30h172q4 -37 4 -59q0 -106 -58.5 -173t-146.5 -67q-72 0 -152 47l-65 37 q-31 18 -51.5 27.5t-38.5 9.5q-29 0 -43.5 -20.5t-14.5 -53.5v-26h-172q-4 37 -4 59z" />
<glyph unicode="&#xd2;" horiz-adv-x="1597" d="M88 675.5q0 194.5 95.5 354.5t257 252t356.5 92q193 0 356.5 -92t258.5 -252t95 -354.5t-95 -354t-259 -252t-356 -92.5q-195 0 -358 92.5t-257 252t-94 354zM313 678q0 -143 62.5 -258t173 -179.5t250.5 -64.5q137 0 247.5 64.5t174 179.5t63.5 258q0 139 -63.5 254 t-174 179.5t-247.5 64.5q-139 0 -250 -64.5t-173.5 -178.5t-62.5 -255zM457 1825v39h262l162 -381h-160z" />
<glyph unicode="&#xd3;" horiz-adv-x="1597" d="M88 675.5q0 194.5 95.5 354.5t257 252t356.5 92q193 0 356.5 -92t258.5 -252t95 -354.5t-95 -354t-259 -252t-356 -92.5q-195 0 -358 92.5t-257 252t-94 354zM313 678q0 -143 62.5 -258t173 -179.5t250.5 -64.5q137 0 247.5 64.5t174 179.5t63.5 258q0 139 -63.5 254 t-174 179.5t-247.5 64.5q-139 0 -250 -64.5t-173.5 -178.5t-62.5 -255zM715 1483l162 381h262v-39l-265 -342h-159z" />
<glyph unicode="&#xd4;" horiz-adv-x="1597" d="M88 675.5q0 194.5 95.5 354.5t257 252t356.5 92q193 0 356.5 -92t258.5 -252t95 -354.5t-95 -354t-259 -252t-356 -92.5q-195 0 -358 92.5t-257 252t-94 354zM313 678q0 -143 62.5 -258t173 -179.5t250.5 -64.5q137 0 247.5 64.5t174 179.5t63.5 258q0 139 -63.5 254 t-174 179.5t-247.5 64.5q-139 0 -250 -64.5t-173.5 -178.5t-62.5 -255zM426 1483l303 381h137l303 -381h-165l-205 192l-207 -192h-166z" />
<glyph unicode="&#xd5;" horiz-adv-x="1597" d="M88 675.5q0 194.5 95.5 354.5t257 252t356.5 92q193 0 356.5 -92t258.5 -252t95 -354.5t-95 -354t-259 -252t-356 -92.5q-195 0 -358 92.5t-257 252t-94 354zM313 678q0 -143 62.5 -258t173 -179.5t250.5 -64.5q137 0 247.5 64.5t174 179.5t63.5 258q0 139 -63.5 254 t-174 179.5t-247.5 64.5q-139 0 -250 -64.5t-173.5 -178.5t-62.5 -255zM426 1583q0 104 58.5 172t148.5 68q74 0 147 -45l68 -41q8 -4 26.5 -15.5t34 -16.5t29.5 -5q29 0 43 19.5t14 52.5v30h172q4 -37 4 -59q0 -106 -58 -173t-146 -67q-72 0 -152 47l-65 37 q-31 18 -51.5 27.5t-39.5 9.5q-29 0 -43 -20.5t-14 -53.5v-26h-172q-4 37 -4 59z" />
<glyph unicode="&#xd6;" horiz-adv-x="1597" d="M88 675.5q0 194.5 95.5 354.5t257 252t356.5 92q193 0 356.5 -92t258.5 -252t95 -354.5t-95 -354t-259 -252t-356 -92.5q-195 0 -358 92.5t-257 252t-94 354zM313 678q0 -143 62.5 -258t173 -179.5t250.5 -64.5q137 0 247.5 64.5t174 179.5t63.5 258q0 139 -63.5 254 t-174 179.5t-247.5 64.5q-139 0 -250 -64.5t-173.5 -178.5t-62.5 -255zM408 1663q0 55 42 94t97 39q59 0 99 -38t40 -95q0 -53 -41 -93t-98 -40q-55 0 -97 40t-42 93zM909 1661q0 55 42 95t98 40q57 0 98 -39t41 -96q0 -53 -41 -93t-98 -40q-56 0 -98 40t-42 93z" />
<glyph unicode="&#xd7;" horiz-adv-x="1146" d="M133 342l309 311l-309 312l129 129l311 -310l312 310l129 -129l-312 -312l312 -311l-129 -129l-312 309l-311 -309z" />
<glyph unicode="&#xd8;" horiz-adv-x="1597" d="M76 82l160 162q-70 90 -109 199.5t-39 232.5q0 195 95.5 354.5t257 251.5t356.5 92q240 0 430 -139l164 166l131 -131l-164 -164q72 -88 110.5 -198.5t38.5 -231.5q0 -195 -95 -354.5t-259 -252t-356 -92.5q-119 0 -227.5 36t-198.5 102l-164 -164zM303 678 q0 -162 80 -287l702 705q-127 88 -286 88q-142 0 -254.5 -65.5t-177 -181.5t-64.5 -259zM510 256q127 -88 289 -88q139 0 251.5 65.5t177 182t64.5 262.5q0 158 -80 283z" />
<glyph unicode="&#xd9;" horiz-adv-x="1421" d="M156 547v805h217v-820q0 -172 95 -264t245 -92q147 0 241.5 92t94.5 264v820h217v-805q0 -176 -72 -305t-198 -197t-283 -68q-162 0 -288 68t-197.5 197t-71.5 305zM369 1825v39h262l162 -381h-160z" />
<glyph unicode="&#xda;" horiz-adv-x="1421" d="M156 547v805h217v-820q0 -172 95 -264t245 -92q147 0 241.5 92t94.5 264v820h217v-805q0 -176 -72 -305t-198 -197t-283 -68q-162 0 -288 68t-197.5 197t-71.5 305zM627 1483l161 381h263v-39l-265 -342h-159z" />
<glyph unicode="&#xdb;" horiz-adv-x="1421" d="M156 547v805h217v-820q0 -172 95 -264t245 -92q147 0 241.5 92t94.5 264v820h217v-805q0 -176 -72 -305t-198 -197t-283 -68q-162 0 -288 68t-197.5 197t-71.5 305zM338 1483l303 381h137l303 -381h-166l-204 192l-207 -192h-166z" />
<glyph unicode="&#xdc;" horiz-adv-x="1421" d="M156 547v805h217v-820q0 -172 95 -264t245 -92q147 0 241.5 92t94.5 264v820h217v-805q0 -176 -72 -305t-198 -197t-283 -68q-162 0 -288 68t-197.5 197t-71.5 305zM319 1663q0 55 42 94t98 39q59 0 99 -38t40 -95q0 -53 -41 -93t-98 -40q-56 0 -98 40t-42 93zM821 1661 q0 55 42 95t98 40q57 0 98 -39t41 -96q0 -53 -41 -93t-98 -40q-56 0 -98 40t-42 93z" />
<glyph unicode="&#xdd;" horiz-adv-x="1269" d="M59 1352h242l334 -588l336 588h239l-467 -807v-545h-217v545zM547 1483l162 381h262v-39l-264 -342h-160z" />
<glyph unicode="&#xde;" horiz-adv-x="1193" d="M170 0v1352h217v-226h277q135 0 239.5 -52t161.5 -147.5t57 -219.5q0 -123 -57 -219.5t-161.5 -150.5t-239.5 -54h-277v-283h-217zM387 475h272q115 0 177.5 63.5t62.5 166.5q0 104 -62.5 166.5t-177.5 62.5h-272v-459z" />
<glyph unicode="&#xdf;" horiz-adv-x="1290" d="M156 0v1087q0 221 125 346.5t335 125.5q176 0 280.5 -85t104.5 -231q0 -82 -30 -164l-80 -219q-33 -84 -33 -125q0 -35 19.5 -60.5t59.5 -52t87 -53.5q109 -68 161 -132t52 -161q0 -137 -102.5 -218t-264.5 -81q-108 0 -196 36t-154 96l98 153q123 -96 259 -96 q68 0 106.5 25.5t38.5 78.5q0 35 -18.5 60.5t-59.5 52.5t-90 55q-109 63 -162 119.5t-53 132.5q0 66 37 156l78 209q31 78 30 141q0 76 -47 121t-131 45q-104 0 -170.5 -71.5t-66.5 -213.5v-1077h-213z" />
<glyph unicode="&#xe0;" horiz-adv-x="1097" d="M82 268q0 131 100.5 209t270.5 78h284v66q0 104 -56 159.5t-159 55.5q-84 0 -149.5 -37t-128.5 -113l-125 127q76 109 184.5 162t239.5 53q186 0 298.5 -108.5t112.5 -311.5v-608h-200v113q-55 -66 -137 -101t-185 -35q-158 0 -254 80t-96 211zM199 1559v38h262l162 -434 h-160zM301 276q0 -63 49 -98t127 -35q109 0 184.5 68t75.5 170v18h-258q-86 0 -132 -30.5t-46 -92.5z" />
<glyph unicode="&#xe1;" horiz-adv-x="1097" d="M82 268q0 131 100.5 209t270.5 78h284v66q0 104 -56 159.5t-159 55.5q-84 0 -149.5 -37t-128.5 -113l-125 127q76 109 184.5 162t239.5 53q186 0 298.5 -108.5t112.5 -311.5v-608h-200v113q-55 -66 -137 -101t-185 -35q-158 0 -254 80t-96 211zM301 276q0 -63 49 -98 t127 -35q109 0 184.5 68t75.5 170v18h-258q-86 0 -132 -30.5t-46 -92.5zM463 1163l162 434h262v-38l-264 -396h-160z" />
<glyph unicode="&#xe2;" horiz-adv-x="1097" d="M82 268q0 131 100.5 209t270.5 78h284v66q0 104 -56 159.5t-159 55.5q-84 0 -149.5 -37t-128.5 -113l-125 127q76 109 184.5 162t239.5 53q186 0 298.5 -108.5t112.5 -311.5v-608h-200v113q-55 -66 -137 -101t-185 -35q-158 0 -254 80t-96 211zM195 1163l278 434h137 l277 -434h-160l-184 223l-187 -223h-161zM301 276q0 -63 49 -98t127 -35q109 0 184.5 68t75.5 170v18h-258q-86 0 -132 -30.5t-46 -92.5z" />
<glyph unicode="&#xe3;" horiz-adv-x="1097" d="M82 268q0 131 100.5 209t270.5 78h284v66q0 104 -56 159.5t-159 55.5q-84 0 -149.5 -37t-128.5 -113l-125 127q76 109 184.5 162t239.5 53q186 0 298.5 -108.5t112.5 -311.5v-608h-200v113q-55 -66 -137 -101t-185 -35q-158 0 -254 80t-96 211zM182 1288 q0 109 56.5 176.5t146.5 67.5q76 0 143 -49l56 -41q27 -20 45 -30.5t39 -10.5q29 0 43 21.5t14 56.5v28h170q2 -20 2 -59q0 -109 -56.5 -177.5t-146.5 -68.5q-32 0 -70 13.5t-71 35.5l-55 41q-8 6 -24.5 19.5t-30 18.5t-29.5 5q-57 0 -58 -78v-28h-170q-4 41 -4 59zM301 276 q0 -63 49 -98t127 -35q109 0 184.5 68t75.5 170v18h-258q-86 0 -132 -30.5t-46 -92.5z" />
<glyph unicode="&#xe4;" horiz-adv-x="1097" d="M82 268q0 131 100.5 209t270.5 78h284v66q0 104 -56 159.5t-159 55.5q-84 0 -149.5 -37t-128.5 -113l-125 127q76 109 184.5 162t239.5 53q186 0 298.5 -108.5t112.5 -311.5v-608h-200v113q-55 -66 -137 -101t-185 -35q-158 0 -254 80t-96 211zM170 1380q0 55 42 95.5 t99.5 40.5t97.5 -39t40 -97q0 -53 -40 -93t-97.5 -40t-99.5 40t-42 93zM301 276q0 -63 49 -98t127 -35q109 0 184.5 68t75.5 170v18h-258q-86 0 -132 -30.5t-46 -92.5zM631 1380q0 55 42 95.5t99 40.5q55 0 96 -40t41 -96q0 -53 -41 -93t-96 -40q-57 0 -99 40t-42 93z" />
<glyph unicode="&#xe5;" horiz-adv-x="1097" d="M82 268q0 131 100.5 209t270.5 78h284v66q0 104 -56 159.5t-159 55.5q-84 0 -149.5 -37t-128.5 -113l-125 127q76 109 184.5 162t239.5 53q186 0 298.5 -108.5t112.5 -311.5v-608h-200v113q-55 -66 -137 -101t-185 -35q-158 0 -254 80t-96 211zM297 1370q0 100 69.5 169 t172.5 69q104 0 173.5 -67.5t69.5 -170.5q0 -100 -69.5 -167.5t-173.5 -67.5q-103 0 -172.5 67.5t-69.5 167.5zM301 276q0 -63 49 -98t127 -35q109 0 184.5 68t75.5 170v18h-258q-86 0 -132 -30.5t-46 -92.5zM446 1370q0 -39 27 -65.5t68 -26.5q39 0 65.5 26.5t26.5 65.5 q0 41 -26.5 68.5t-65.5 27.5q-41 0 -68 -27.5t-27 -68.5z" />
<glyph unicode="&#xe6;" horiz-adv-x="1816" d="M82 272q0 137 101.5 219t269.5 82h284v48q0 104 -56 159.5t-157 55.5q-82 0 -148.5 -38t-129.5 -112l-125 127q78 109 186.5 162t235.5 53q115 0 201.5 -45t136.5 -133q68 84 166 131t215 47q133 0 238.5 -60.5t164.5 -166t59 -236.5q0 -39 -5 -82t-11 -65h-747 q25 -117 111.5 -183.5t213.5 -66.5q158 0 291 117l104 -146q-82 -80 -183 -121t-216 -41q-139 0 -250.5 58.5t-181.5 163.5q-55 -109 -161.5 -165.5t-244.5 -56.5q-168 0 -265 82t-97 213zM301 289q0 -68 49 -106t127 -38q109 0 184.5 67t75.5 167v39h-258q-86 0 -132 -33 t-46 -96zM956 573h553q8 125 -66.5 199t-189 74t-195.5 -75t-102 -198z" />
<glyph unicode="&#xe7;" horiz-adv-x="1130" d="M92 503.5q0 145.5 70.5 265.5t193.5 189.5t269 69.5q139 0 248.5 -62.5t175.5 -170.5l-152 -119q-109 154 -270 153q-90 0 -162 -43t-113 -117.5t-41 -164.5q0 -92 41 -167t113 -118t162 -43q160 0 270 152l152 -117q-68 -109 -177.5 -171.5t-246.5 -62.5q-148 0 -270 70 t-192.5 190.5t-70.5 266zM344 -225q74 -6 117 -6q66 0 105.5 31.5t39.5 93.5q0 66 -49 135l88 43q63 -33 100 -89.5t37 -127.5q0 -104 -78.5 -175t-214.5 -71q-67 0 -145 18v148z" />
<glyph unicode="&#xe8;" d="M92 502q0 145 68.5 266t188.5 190.5t263 69.5q133 0 238.5 -60.5t166 -165t60.5 -235.5q0 -63 -16 -135h-750q20 -123 109.5 -193.5t218.5 -70.5q158 0 293 119l102 -148q-172 -162 -401 -162q-154 0 -277 69t-193.5 188.5t-70.5 267.5zM266 1559v38h262l162 -434h-160z M315 600h547q-2 115 -76.5 180.5t-181 65.5t-185.5 -66.5t-104 -179.5z" />
<glyph unicode="&#xe9;" d="M92 502q0 145 68.5 266t188.5 190.5t263 69.5q133 0 238.5 -60.5t166 -165t60.5 -235.5q0 -63 -16 -135h-750q20 -123 109.5 -193.5t218.5 -70.5q158 0 293 119l102 -148q-172 -162 -401 -162q-154 0 -277 69t-193.5 188.5t-70.5 267.5zM315 600h547q-2 115 -76.5 180.5 t-181 65.5t-185.5 -66.5t-104 -179.5zM530 1163l162 434h262v-38l-264 -396h-160z" />
<glyph unicode="&#xea;" d="M92 502q0 145 68.5 266t188.5 190.5t263 69.5q133 0 238.5 -60.5t166 -165t60.5 -235.5q0 -63 -16 -135h-750q20 -123 109.5 -193.5t218.5 -70.5q158 0 293 119l102 -148q-172 -162 -401 -162q-154 0 -277 69t-193.5 188.5t-70.5 267.5zM262 1163l279 434h137l276 -434 h-159l-185 223l-186 -223h-162zM315 600h547q-2 115 -76.5 180.5t-181 65.5t-185.5 -66.5t-104 -179.5z" />
<glyph unicode="&#xeb;" d="M92 502q0 145 68.5 266t188.5 190.5t263 69.5q133 0 238.5 -60.5t166 -165t60.5 -235.5q0 -63 -16 -135h-750q20 -123 109.5 -193.5t218.5 -70.5q158 0 293 119l102 -148q-172 -162 -401 -162q-154 0 -277 69t-193.5 188.5t-70.5 267.5zM238 1380q0 55 42 95.5t99 40.5 t97 -39t40 -97q0 -53 -40 -93t-97 -40t-99 40t-42 93zM315 600h547q-2 115 -76.5 180.5t-181 65.5t-185.5 -66.5t-104 -179.5zM698 1380q0 55 42 95.5t100 40.5q55 0 96 -40t41 -96q0 -53 -41 -93t-96 -40q-58 0 -100 40t-42 93z" />
<glyph unicode="&#xec;" horiz-adv-x="526" d="M-14 1559v38h262l100 -434h-160zM156 0v1006h215v-1006h-215z" />
<glyph unicode="&#xed;" horiz-adv-x="526" d="M156 0v1006h215v-1006h-215zM182 1163l101 434h262v-38l-203 -396h-160z" />
<glyph unicode="&#xee;" horiz-adv-x="526" d="M-82 1163l279 434h137l276 -434h-159l-185 223l-186 -223h-162zM156 0v1006h215v-1006h-215z" />
<glyph unicode="&#xef;" horiz-adv-x="526" d="M-80 1380q0 57 41 96.5t96 39.5q59 0 99.5 -39t40.5 -97q0 -53 -41 -93t-99 -40q-53 0 -95 40t-42 93zM156 0v1006h215v-1006h-215zM330 1380q0 57 42 96.5t97 39.5q57 0 98 -39t41 -97q0 -53 -41 -93t-98 -40q-55 0 -97 40t-42 93z" />
<glyph unicode="&#xf0;" horiz-adv-x="1169" d="M92 446.5q0 131.5 62.5 236.5t169 164.5t235.5 59.5q29 0 70 -4l-164 225l-293 -141l-76 156l264 129l-122 168l163 119l148 -197l315 154l78 -154l-289 -141l193 -258q80 -109 125 -177.5t75.5 -151.5t30.5 -175q0 -137 -63.5 -247t-176 -172.5t-251.5 -62.5 q-141 0 -254 61.5t-176.5 169t-63.5 239zM311 446.5q0 -120.5 77 -197.5t195.5 -77t196.5 78t78 199q0 119 -78 196.5t-196.5 77.5t-195.5 -78t-77 -198.5z" />
<glyph unicode="&#xf1;" horiz-adv-x="1177" d="M156 0v1006h200v-99q115 121 301 121q177 0 277 -109.5t100 -289.5v-629h-215v600q0 104 -60.5 169t-158.5 65q-100 0 -164.5 -66t-64.5 -168v-600h-215zM221 1288q0 109 56.5 176.5t146.5 67.5q76 0 143 -49l56 -41q27 -20 45 -30.5t39 -10.5q29 0 43 21.5t14 56.5v28 h170q2 -20 2 -59q0 -109 -56.5 -177.5t-146.5 -68.5q-33 0 -70.5 13.5t-70.5 35.5l-55 41q-8 6 -24.5 19.5t-30 18.5t-29.5 5q-57 0 -58 -78v-28h-170q-4 41 -4 59z" />
<glyph unicode="&#xf2;" horiz-adv-x="1247" d="M92 504q0 145 70.5 265t192.5 189.5t268 69.5q147 0 270 -69.5t193.5 -190.5t70.5 -264.5t-70.5 -264t-193.5 -191.5t-270 -71q-146 0 -268 71t-192.5 191.5t-70.5 264.5zM281 1559v38h262l162 -434h-160zM311 502q0 -92 41 -167t112 -117t159 -42t159.5 43t112.5 118 t41 165q0 92 -41 167.5t-112.5 118.5t-157.5 43q-88 0 -160 -43t-113 -118.5t-41 -167.5z" />
<glyph unicode="&#xf3;" horiz-adv-x="1247" d="M92 504q0 145 70.5 265t192.5 189.5t268 69.5q147 0 270 -69.5t193.5 -190.5t70.5 -264.5t-70.5 -264t-193.5 -191.5t-270 -71q-146 0 -268 71t-192.5 191.5t-70.5 264.5zM311 502q0 -92 41 -167t112 -117t159 -42t159.5 43t112.5 118t41 165q0 92 -41 167.5 t-112.5 118.5t-157.5 43q-88 0 -160 -43t-113 -118.5t-41 -167.5zM547 1163l162 434h262v-38l-264 -396h-160z" />
<glyph unicode="&#xf4;" horiz-adv-x="1247" d="M92 504q0 145 70.5 265t192.5 189.5t268 69.5q147 0 270 -69.5t193.5 -190.5t70.5 -264.5t-70.5 -264t-193.5 -191.5t-270 -71q-146 0 -268 71t-192.5 191.5t-70.5 264.5zM279 1163l278 434h137l277 -434h-160l-184 223l-187 -223h-161zM311 502q0 -92 41 -167t112 -117 t159 -42t159.5 43t112.5 118t41 165q0 92 -41 167.5t-112.5 118.5t-157.5 43q-88 0 -160 -43t-113 -118.5t-41 -167.5z" />
<glyph unicode="&#xf5;" horiz-adv-x="1247" d="M92 504q0 145 70.5 265t192.5 189.5t268 69.5q147 0 270 -69.5t193.5 -190.5t70.5 -264.5t-70.5 -264t-193.5 -191.5t-270 -71q-146 0 -268 71t-192.5 191.5t-70.5 264.5zM266 1288q0 109 56.5 176.5t146.5 67.5q76 0 143 -49l56 -41q27 -20 45 -30.5t39 -10.5 q29 0 43 21.5t14 56.5v28h170q2 -20 2 -59q0 -109 -56.5 -177.5t-146.5 -68.5q-33 0 -70.5 13.5t-70.5 35.5l-55 41q-8 6 -24.5 19.5t-30 18.5t-29.5 5q-57 0 -58 -78v-28h-170q-4 41 -4 59zM311 502q0 -92 41 -167t112 -117t159 -42t159.5 43t112.5 118t41 165 q0 92 -41 167.5t-112.5 118.5t-157.5 43q-88 0 -160 -43t-113 -118.5t-41 -167.5z" />
<glyph unicode="&#xf6;" horiz-adv-x="1247" d="M92 504q0 145 70.5 265t192.5 189.5t268 69.5q147 0 270 -69.5t193.5 -190.5t70.5 -264.5t-70.5 -264t-193.5 -191.5t-270 -71q-146 0 -268 71t-192.5 191.5t-70.5 264.5zM254 1380q0 55 42 95.5t99.5 40.5t97 -39t39.5 -97q0 -53 -39.5 -93t-97 -40t-99.5 40t-42 93z M311 502q0 -92 41 -167t112 -117t159 -42t159.5 43t112.5 118t41 165q0 92 -41 167.5t-112.5 118.5t-157.5 43q-88 0 -160 -43t-113 -118.5t-41 -167.5zM715 1380q0 55 42 95.5t99 40.5q55 0 96 -40t41 -96q0 -53 -41 -93t-96 -40q-57 0 -99 40t-42 93z" />
<glyph unicode="&#xf7;" horiz-adv-x="1146" d="M102 557v186h940v-186h-940zM430 274.5q0 55.5 41 94.5t98 39q59 0 99.5 -38t40.5 -95.5t-40 -95.5t-100 -38q-57 0 -98 39t-41 94.5zM430 1022q0 55 41 94t98 39q59 0 99.5 -38t40.5 -95q0 -55 -41 -94t-98.5 -39t-98.5 39t-41 94z" />
<glyph unicode="&#xf8;" horiz-adv-x="1261" d="M82 82l115 115q-98 137 -99 305q0 145 71 266t192.5 190.5t269.5 69.5q166 0 303 -92l117 115l131 -129l-115 -115q96 -135 96 -305q0 -143 -71.5 -264t-194.5 -191t-268 -70q-166 0 -301 91l-115 -117zM303 502q0 -100 43 -174l463 465q-82 49 -178 49 q-144 0 -236 -96.5t-92 -243.5zM451 211q80 -51 178 -51q94 0 168.5 44t117.5 123t43 175t-40 174z" />
<glyph unicode="&#xf9;" d="M145 422v584h213v-600q0 -104 64.5 -167t163.5 -63q94 0 157.5 62.5t63.5 167.5v600h215v-584q0 -133 -57.5 -234.5t-156.5 -156t-222 -54.5q-125 0 -225.5 54.5t-158 156t-57.5 234.5zM240 1559v38h262l162 -434h-160z" />
<glyph unicode="&#xfa;" d="M145 422v584h213v-600q0 -104 64.5 -167t163.5 -63q94 0 157.5 62.5t63.5 167.5v600h215v-584q0 -133 -57.5 -234.5t-156.5 -156t-222 -54.5q-125 0 -225.5 54.5t-158 156t-57.5 234.5zM506 1163l162 434h262v-38l-264 -396h-160z" />
<glyph unicode="&#xfb;" d="M145 422v584h213v-600q0 -104 64.5 -167t163.5 -63q94 0 157.5 62.5t63.5 167.5v600h215v-584q0 -133 -57.5 -234.5t-156.5 -156t-222 -54.5q-125 0 -225.5 54.5t-158 156t-57.5 234.5zM238 1163l278 434h137l277 -434h-160l-184 223l-187 -223h-161z" />
<glyph unicode="&#xfc;" d="M145 422v584h213v-600q0 -104 64.5 -167t163.5 -63q94 0 157.5 62.5t63.5 167.5v600h215v-584q0 -133 -57.5 -234.5t-156.5 -156t-222 -54.5q-125 0 -225.5 54.5t-158 156t-57.5 234.5zM213 1380q0 55 42 95.5t99.5 40.5t97.5 -39t40 -97q0 -53 -40 -93t-97.5 -40 t-99.5 40t-42 93zM674 1380q0 55 42 95.5t99 40.5q55 0 96 -40t41 -96q0 -53 -41 -93t-96 -40q-57 0 -99 40t-42 93z" />
<glyph unicode="&#xfd;" horiz-adv-x="1124" d="M39 1006h231l289 -732l297 732h229l-489 -1121q-63 -143 -151.5 -209.5t-217.5 -66.5q-84 0 -166 20v183q94 -8 119 -9q76 0 129 32t90 116l41 94zM479 1163l162 434h262v-38l-264 -396h-160z" />
<glyph unicode="&#xfe;" horiz-adv-x="1292" d="M156 -369v1905h215v-653q57 70 144 107.5t192 37.5q141 0 253.5 -68.5t176 -188.5t63.5 -267q0 -150 -63.5 -269.5t-176 -188.5t-253.5 -69q-102 0 -189.5 38t-146.5 108v-492h-215zM369 503.5q0 -108.5 43 -183t111.5 -110.5t148.5 -36q86 0 155.5 42t110.5 116t41 170 t-40 171t-110.5 116.5t-156.5 41.5q-80 0 -148.5 -35.5t-111.5 -109.5t-43 -182.5z" />
<glyph unicode="&#xff;" horiz-adv-x="1124" d="M39 1006h231l289 -732l297 732h229l-489 -1121q-63 -143 -151.5 -209.5t-217.5 -66.5q-84 0 -166 20v183q94 -8 119 -9q76 0 129 32t90 116l41 94zM188 1380q0 55 42 95.5t99.5 40.5t97.5 -39t40 -97q0 -53 -40 -93t-97.5 -40t-99.5 40t-42 93zM649 1380q0 55 42 95.5 t100 40.5q55 0 96 -40t41 -96q0 -53 -41 -93t-96 -40q-58 0 -100 40t-42 93z" />
<glyph unicode="&#x152;" horiz-adv-x="2279" d="M88 675.5q0 194.5 93 354.5t256 252t360 92q152 0 278.5 -57t208.5 -160v195h887v-195h-670v-346h504v-188h-504v-428h694v-195h-911v197q-84 -104 -212 -162t-277 -58q-197 0 -359 92.5t-255 252t-93 354zM313 675.5q0 -143.5 62.5 -257t173 -178t248 -64.5t249 64.5 t175 179.5t63.5 256t-63.5 254.5t-175 179.5t-249 66t-248 -64.5t-173 -178.5t-62.5 -257.5z" />
<glyph unicode="&#x153;" horiz-adv-x="1970" d="M92 501.5q0 145.5 70.5 266.5t191.5 190.5t264 69.5q129 0 233.5 -57.5t168.5 -159.5q68 100 172 157.5t229 57.5q129 0 233.5 -60.5t165 -166t60.5 -234.5q0 -63 -16 -135h-738q20 -123 105.5 -192.5t212.5 -69.5q158 0 287 117l106 -146q-82 -78 -184.5 -120 t-214.5 -42q-131 0 -241 57.5t-177 158.5q-66 -100 -169 -158t-235 -58q-143 0 -264 70t-190.5 189.5t-69.5 265zM311 502q0 -92 40 -167t109.5 -117t157.5 -42q134 0 217 92t83 233.5t-83 234.5t-214 93q-88 0 -159 -43t-111 -117.5t-40 -166.5zM1130 598h535 q-2 115 -75.5 180.5t-180.5 65.5q-104 0 -180 -66.5t-99 -179.5z" />
<glyph unicode="&#x178;" horiz-adv-x="1269" d="M59 1352h242l334 -588l336 588h239l-467 -807v-545h-217v545zM240 1663q0 55 42 94t97 39q59 0 99 -38t40 -95q0 -53 -41 -93t-98 -40q-55 0 -97 40t-42 93zM741 1661q0 55 42 95t98 40q57 0 98 -39t41 -96q0 -53 -41 -93t-98 -40q-56 0 -98 40t-42 93z" />
<glyph unicode="&#x2c6;" horiz-adv-x="1228" d="M268 1163l279 434h137l277 -434h-160l-185 223l-186 -223h-162z" />
<glyph unicode="&#x2dc;" horiz-adv-x="1228" d="M256 1288q0 109 56.5 176.5t146.5 67.5q76 0 143 -49l55 -41q27 -20 45.5 -30.5t38.5 -10.5q29 0 43.5 21.5t14.5 56.5v28h170q2 -20 2 -59q0 -109 -56.5 -177.5t-146.5 -68.5q-33 0 -71 13.5t-70 35.5l-56 41q-8 6 -24.5 19.5t-29.5 18.5t-30 5q-57 0 -57 -78v-28h-170 q-4 41 -4 59z" />
<glyph unicode="&#x2000;" horiz-adv-x="939" />
<glyph unicode="&#x2001;" horiz-adv-x="1878" />
<glyph unicode="&#x2002;" horiz-adv-x="939" />
<glyph unicode="&#x2003;" horiz-adv-x="1878" />
<glyph unicode="&#x2004;" horiz-adv-x="626" />
<glyph unicode="&#x2005;" horiz-adv-x="469" />
<glyph unicode="&#x2006;" horiz-adv-x="313" />
<glyph unicode="&#x2007;" horiz-adv-x="313" />
<glyph unicode="&#x2008;" horiz-adv-x="234" />
<glyph unicode="&#x2009;" horiz-adv-x="375" />
<glyph unicode="&#x200a;" horiz-adv-x="104" />
<glyph unicode="&#x2010;" horiz-adv-x="704" d="M100 559v182h504v-182h-504z" />
<glyph unicode="&#x2011;" horiz-adv-x="704" d="M100 559v182h504v-182h-504z" />
<glyph unicode="&#x2012;" horiz-adv-x="704" d="M100 559v182h504v-182h-504z" />
<glyph unicode="&#x2013;" horiz-adv-x="1032" d="M80 559v182h872v-182h-872z" />
<glyph unicode="&#x2014;" horiz-adv-x="2048" d="M102 559v182h1844v-182h-1844z" />
<glyph unicode="&#x2018;" horiz-adv-x="595" d="M145 803l101 549h168l-21 -549h-248z" />
<glyph unicode="&#x2019;" horiz-adv-x="595" d="M182 803l19 549h248l-101 -549h-166z" />
<glyph unicode="&#x201a;" horiz-adv-x="595" d="M182 -330l19 547h248l-101 -547h-166z" />
<glyph unicode="&#x201c;" horiz-adv-x="1024" d="M145 803l101 549h168l-21 -549h-248zM575 803l101 549h168l-21 -549h-248z" />
<glyph unicode="&#x201d;" horiz-adv-x="1024" d="M182 803l19 549h248l-101 -549h-166zM612 803l19 549h248l-101 -549h-166z" />
<glyph unicode="&#x201e;" horiz-adv-x="1024" d="M182 -330l19 547h248l-101 -547h-166zM612 -330l19 547h248l-101 -547h-166z" />
<glyph unicode="&#x2022;" horiz-adv-x="823" d="M111 551q0 84 41 151.5t110.5 105.5t149.5 38q82 0 150.5 -38t108.5 -105.5t40 -151.5t-40 -150.5t-108.5 -104.5t-150.5 -38q-80 0 -149.5 38t-110.5 105.5t-41 149.5z" />
<glyph unicode="&#x2026;" horiz-adv-x="1613" d="M127 135.5q0 67.5 47 113.5t114.5 46t112.5 -45t45 -115q0 -68 -45 -113t-112.5 -45t-114.5 45.5t-47 113zM647 135.5q0 67.5 47 113.5t115 46t113 -45t45 -115q0 -68 -45 -113t-113 -45t-115 45.5t-47 113zM1167 135.5q0 67.5 47.5 113.5t115 46t112.5 -45t45 -115 q0 -68 -45 -113t-112.5 -45t-115 45.5t-47.5 113z" />
<glyph unicode="&#x202f;" horiz-adv-x="375" />
<glyph unicode="&#x2039;" horiz-adv-x="661" d="M70 526v60l381 407l139 -123l-283 -313l283 -317l-139 -121z" />
<glyph unicode="&#x203a;" horiz-adv-x="661" d="M72 240l282 317l-282 313l139 123l381 -407v-60l-381 -407z" />
<glyph unicode="&#x205f;" horiz-adv-x="469" />
<glyph unicode="&#x20ac;" horiz-adv-x="1390" d="M8 428v170h178q-4 49 -4 78q0 47 2 69h-174v170h205q63 209 223 334t383 125q158 0 283 -63.5t196 -173.5l-153 -119q-53 72 -134 115t-184 43q-133 0 -231 -70t-147 -191h540l-43 -170h-536q-4 -45 -4 -69q0 -29 4 -78h493l-45 -170h-405q51 -119 147 -185.5t227 -66.5 q103 0 184 43t134 117l153 -121q-72 -111 -196.5 -174.5t-282.5 -63.5q-221 0 -379.5 123t-222.5 328h-211z" />
<glyph unicode="&#x2122;" horiz-adv-x="1961" d="M23 1186v166h778v-166h-299v-754h-180v754h-299zM944 432v934h62l389 -502l389 502h57v-934h-182v508l-236 -307h-59l-236 307v-508h-184z" />
<glyph unicode="&#x25fc;" horiz-adv-x="1003" d="M0 0v1004h1004v-1004h-1004z" />
</font>
</defs>
</svg>
