<svg width="12" height="10" viewBox="0 0 12 10" fill="none" xmlns="http://www.w3.org/2000/svg">
<path d="M0.666672 4.81714C0.666672 4.56401 0.854774 4.35481 1.09882 4.3217L1.16667 4.31714L11.1667 4.31714C11.4428 4.31714 11.6667 4.541 11.6667 4.81714C11.6667 5.07027 11.4786 5.27947 11.2345 5.31257L11.1667 5.31714L1.16667 5.31714C0.890529 5.31714 0.666672 5.09328 0.666672 4.81714Z" fill="#46A358"/>
<path d="M6.78068 1.15517C6.585 0.960332 6.58431 0.643751 6.77915 0.448068C6.95628 0.270175 7.23402 0.25344 7.43008 0.398255L7.48626 0.446546L11.5196 4.46255C11.698 4.6402 11.7142 4.91895 11.5683 5.11499L11.5196 5.17114L7.48629 9.18781C7.29062 9.38267 6.97404 9.38201 6.77918 9.18635C6.60204 9.00847 6.58648 8.73066 6.73212 8.53522L6.78065 8.47924L10.458 4.81666L6.78068 1.15517Z" fill="#46A358"/>
</svg>
