<svg width="12" height="10" viewBox="0 0 12 10" fill="none" xmlns="http://www.w3.org/2000/svg">
<path d="M0.666656 4.81714C0.666656 4.56401 0.854759 4.35481 1.09881 4.3217L1.16666 4.31714L11.1667 4.31714C11.4428 4.31714 11.6667 4.541 11.6667 4.81714C11.6667 5.07027 11.4786 5.27947 11.2345 5.31257L11.1667 5.31714L1.16666 5.31714C0.890514 5.31714 0.666656 5.09328 0.666656 4.81714Z" fill="#3D3D3D"/>
<path d="M6.78066 1.15517C6.58498 0.960332 6.5843 0.643751 6.77914 0.448068C6.95627 0.270175 7.23401 0.25344 7.43006 0.398255L7.48624 0.446546L11.5196 4.46255C11.698 4.6402 11.7142 4.91895 11.5683 5.11499L11.5196 5.17114L7.48627 9.18781C7.29061 9.38267 6.97403 9.38201 6.77917 9.18635C6.60203 9.00847 6.58646 8.73066 6.7321 8.53522L6.78063 8.47924L10.458 4.81666L6.78066 1.15517Z" fill="#3D3D3D"/>
</svg>
