<svg width="119" height="51" viewBox="0 0 119 51" fill="none" xmlns="http://www.w3.org/2000/svg">
<path d="M57.8187 0.416025C58.9229 0.142795 60.0771 0.142795 61.1813 0.416025L105.71 11.434C108.834 12.207 111.029 15.0107 111.029 18.2291V32.7709C111.029 35.9893 108.834 38.793 105.71 39.566L61.1813 50.584C60.0771 50.8572 58.9229 50.8572 57.8187 50.584L13.2901 39.566C10.166 38.793 7.97149 35.9893 7.97149 32.7709V18.2291C7.97149 15.0107 10.166 12.207 13.2901 11.434L57.8187 0.416025Z" fill="#7F56D9"/>
<path d="M57.9988 1.14407C58.9847 0.900114 60.0153 0.900114 61.0012 1.14407L105.53 12.162C108.319 12.8522 110.279 15.3555 110.279 18.2291V32.7709C110.279 35.6445 108.319 38.1478 105.53 38.838L61.0012 49.8559C60.0153 50.0999 58.9847 50.0999 57.9988 49.8559L13.4703 38.838C10.6809 38.1478 8.72149 35.6445 8.72149 32.7709V18.2291C8.72149 15.3555 10.6809 12.8522 13.4703 12.162L57.9988 1.14407Z" stroke="white" stroke-opacity="0.19" stroke-width="1.5"/>
<path d="M26.7369 34.3075H21.4861L30.3774 16.6924H37.0284L39.9688 34.3075H34.7181L32.9678 21.5435H32.8278L26.7369 34.3075ZM26.9469 27.3578H36.8184L36.1883 30.9359H26.3168L26.9469 27.3578Z" fill="white"/>
<path d="M57.9444 23.2981H53.0786C53.1137 22.891 53.0903 22.524 53.0086 22.1972C52.927 21.8703 52.7869 21.5893 52.5886 21.3542C52.3902 21.1134 52.1306 20.9299 51.8097 20.8038C51.4888 20.6776 51.1067 20.6145 50.6633 20.6145C49.8115 20.6145 49.0501 20.8238 48.3792 21.2424C47.7083 21.6553 47.1511 22.2488 46.7077 23.0229C46.2643 23.7912 45.9493 24.7087 45.7626 25.7752C45.5992 26.8074 45.5934 27.6646 45.7451 28.347C45.9026 29.0293 46.2089 29.5396 46.6639 29.878C47.1248 30.2163 47.7229 30.3854 48.458 30.3854C48.948 30.3854 49.3973 30.3281 49.8057 30.2134C50.2199 30.0987 50.5874 29.9353 50.9083 29.7231C51.235 29.5052 51.5122 29.2472 51.7397 28.949C51.9731 28.6451 52.151 28.3097 52.2735 27.9427H57.1743C56.9876 28.6881 56.655 29.4508 56.1766 30.2306C55.6982 31.0047 55.0798 31.7186 54.3213 32.3723C53.5629 33.0202 52.6703 33.5449 51.6434 33.9463C50.6166 34.3477 49.4614 34.5484 48.1779 34.5484C46.4977 34.5484 45.0479 34.1871 43.8285 33.4646C42.615 32.7421 41.734 31.6871 41.1856 30.2994C40.643 28.9118 40.5351 27.2202 40.8618 25.2247C41.1885 23.2981 41.8332 21.684 42.7959 20.3823C43.7585 19.0807 44.9283 18.1001 46.3051 17.4407C47.682 16.7813 49.1464 16.4516 50.6983 16.4516C51.871 16.4516 52.9211 16.6036 53.8488 16.9075C54.7822 17.2114 55.5669 17.6558 56.2029 18.2406C56.8446 18.8198 57.3172 19.5337 57.6206 20.3823C57.924 21.231 58.0319 22.2029 57.9444 23.2981Z" fill="white"/>
<path d="M59.8109 16.6924H65.8668L68.3522 26.6697H68.5622L74.4081 16.6924H80.464L77.4886 34.3075H72.7279L74.4431 24.1238H74.3031L68.6323 34.1699H65.7618L63.4865 24.055H63.3465L61.5962 34.3075H56.8355L59.8109 16.6924Z" fill="white"/>
<path d="M78.3159 34.3075L81.2914 16.6924H94.2083L93.5432 20.5457H85.492L85.0019 23.5733H92.388L91.7229 27.4266H84.3368L83.8468 30.4542H91.863L91.1979 34.3075H78.3159Z" fill="white"/>
</svg>
