<?xml version="1.0" standalone="no"?>
<!DOCTYPE svg PUBLIC "-//W3C//DTD SVG 1.1//EN" "http://www.w3.org/Graphics/SVG/1.1/DTD/svg11.dtd" >
<svg xmlns="http://www.w3.org/2000/svg" xmlns:xlink="http://www.w3.org/1999/xlink" version="1.1">
<metadata></metadata>
<defs>
<font id="cera_probold" horiz-adv-x="1146" >
<font-face units-per-em="2048" ascent="1655" descent="-393" />
<missing-glyph horiz-adv-x="573" />
<glyph unicode="&#xfb01;" horiz-adv-x="1282" d="M41 780v234h143v166q0 190 104.5 285.5t286.5 95.5q80 0 152 -23v-231q-45 6 -82 6q-94 0 -139 -36t-45 -122v-141h223v-234h-223v-780h-277v780h-143zM829 1382q0 74 51.5 123t125 49t126 -49t52.5 -123q0 -72 -52.5 -121t-126 -49t-125 49.5t-51.5 120.5zM868 0v1014 h277v-1014h-277z" />
<glyph unicode="&#xfb02;" horiz-adv-x="1282" d="M41 780v234h143v166q0 190 104.5 285.5t286.5 95.5q80 0 152 -23v-231q-45 6 -82 6q-94 0 -139 -36t-45 -122v-141h223v-234h-223v-780h-277v780h-143zM868 0v1536h277v-1536h-277z" />
<glyph horiz-adv-x="0" />
<glyph unicode="&#xd;" horiz-adv-x="681" />
<glyph unicode=" "  horiz-adv-x="573" />
<glyph unicode="&#x09;" horiz-adv-x="573" />
<glyph unicode="&#xa0;" horiz-adv-x="573" />
<glyph unicode="!" horiz-adv-x="710" d="M166 166q0 80 54 135t138 55q80 0 134.5 -55t54.5 -135q0 -82 -54.5 -136.5t-134.5 -54.5q-84 0 -138 54.5t-54 136.5zM188 1352h330l-51 -856h-225z" />
<glyph unicode="&#x22;" horiz-adv-x="1101" d="M170 782l10 570h316l-115 -570h-211zM655 782l11 570h315l-115 -570h-211z" />
<glyph unicode="#" horiz-adv-x="1292" d="M55 311v232h197l37 266h-191v231h221l41 312h226l-41 -312h303l41 312h225l-41 -312h166v-231h-199l-34 -266h188v-232h-221l-41 -311h-223l41 311h-306l-41 -311h-223l41 311h-166zM475 530h305l37 291h-303z" />
<glyph unicode="$" horiz-adv-x="1101" d="M66 332l186 139q119 -186 309 -186q80 0 129 30.5t49 90.5q0 49 -37.5 78.5t-119.5 62.5l-140 51q-143 53 -224 142t-81 214t80 214t211 120v246h242v-242q203 -43 305 -235l-184 -139q-49 72 -106.5 105.5t-129.5 33.5q-63 0 -105 -25.5t-42 -79.5q0 -45 33.5 -72.5 t103.5 -56.5l153 -53q156 -57 234 -146t78 -214q0 -144 -93.5 -239t-246.5 -120v-250h-242v254q-119 27 -212 97.5t-150 179.5z" />
<glyph unicode="%" horiz-adv-x="1763" d="M115 1040.5q0 94.5 47 171t127 120.5t176 44q94 0 174 -44t127 -120.5t47 -171t-47 -172t-127 -122t-174 -44.5q-96 0 -176 44.5t-127 122t-47 172zM330 1040q0 -66 36.5 -106.5t100.5 -40.5q57 0 95 41t38 106q0 63 -38 104.5t-95 41.5q-61 0 -99 -41t-38 -105zM383 0 l776 1352h223l-778 -1352h-221zM950 315.5q0 94.5 47 171t127 120.5t174.5 44t175 -44t128 -120.5t47.5 -171t-47.5 -172t-127 -122t-176.5 -44.5q-94 0 -174 44.5t-127 122t-47 172zM1163 315.5q0 -65.5 37 -105.5t100 -40q58 0 96 41t38 104.5t-38 104.5t-96 41 q-63 0 -100 -40t-37 -105.5z" />
<glyph unicode="&#x26;" horiz-adv-x="1380" d="M94 352q0 109 60.5 198t212.5 208q-61 80 -90 150.5t-29 144.5q0 145 96 234t254 89q150 0 244 -83t94 -214q0 -96 -52.5 -179t-168.5 -179l198 -240q63 90 117 168q37 49 74 105l213 -152l-53 -78q-127 -182 -181 -248l228 -276h-324l-82 100q-164 -125 -366 -125 q-131 0 -231.5 47.5t-157 133.5t-56.5 196zM371 379q0 -72 51 -116t133 -44q98 0 190 76l-233 283q-84 -70 -112.5 -110t-28.5 -89zM496 1049q0 -35 17 -69t62 -89l5 2q59 47 83.5 83t24.5 77t-24.5 64.5t-69.5 23.5t-71.5 -24.5t-26.5 -67.5z" />
<glyph unicode="'" horiz-adv-x="616" d="M170 782l10 570h316l-115 -570h-211z" />
<glyph unicode="(" horiz-adv-x="747" d="M139 621q0 360 125 582t322 310l108 -165q-141 -94 -227 -265.5t-86 -461.5q0 -289 86 -460t227 -265l-108 -166q-197 88 -322 310t-125 581z" />
<glyph unicode=")" horiz-adv-x="747" d="M53 -104q141 94 228.5 265t87.5 460q0 291 -86 461.5t-230 265.5l111 165q195 -88 319.5 -310t124.5 -582q0 -358 -125 -580.5t-319 -310.5z" />
<glyph unicode="*" horiz-adv-x="956" d="M80 983l186 139l-186 138l80 137l213 -92l26 229h158l27 -229l213 92l80 -137l-187 -138l187 -139l-80 -137l-213 92l-27 -229h-158l-26 229l-213 -92z" />
<glyph unicode="+" d="M92 539v235h352v361h265v-361h348v-235h-348v-363h-265v363h-352z" />
<glyph unicode="," horiz-adv-x="573" d="M131 -365l12 617h316l-109 -617h-219z" />
<glyph unicode="-" horiz-adv-x="700" d="M92 541v231h516v-231h-516z" />
<glyph unicode="." horiz-adv-x="573" d="M96 166q0 80 55.5 135t137.5 55q80 0 134 -55t54 -135q0 -82 -53 -136.5t-135 -54.5t-137.5 54.5t-55.5 136.5z" />
<glyph unicode="/" horiz-adv-x="1376" d="M6 -248l1071 1845h293l-1071 -1845h-293z" />
<glyph unicode="0" horiz-adv-x="1300" d="M115 686q0 309 137 499.5t399 190.5t398.5 -190.5t136.5 -499.5q0 -201 -59.5 -361.5t-179.5 -255t-296 -94.5t-297 94.5t-180 255t-59 361.5zM399 684q0 -453 252 -453q250 0 250 453q0 215 -60.5 325.5t-189.5 110.5q-131 0 -191.5 -110.5t-60.5 -325.5z" />
<glyph unicode="1" horiz-adv-x="821" d="M37 1186l506 166h92v-1352h-277v1024l-256 -82z" />
<glyph unicode="2" horiz-adv-x="1196" d="M92 -2v59l483 525q100 109 145.5 186.5t45.5 153.5q0 88 -51 143t-137 55t-138.5 -57t-52.5 -150q0 -37 10 -98h-278q-14 55 -15 115q0 115 58.5 217t167 165.5t252.5 63.5q133 0 240.5 -56t168 -154.5t60.5 -221.5q0 -137 -74 -255t-217 -269l-174 -184h504v-236z" />
<glyph unicode="3" horiz-adv-x="1124" d="M31 283l192 135q61 -92 129 -139.5t162 -47.5q102 0 169 56.5t67 152.5q0 94 -71 144.5t-206 50.5h-170v72l283 395h-451v250h871v-74l-299 -422q137 -37 231 -145.5t94 -268.5q0 -135 -68.5 -241.5t-185 -166t-256.5 -59.5q-168 0 -295 84t-196 224z" />
<glyph unicode="4" horiz-adv-x="1181" d="M33 221v74l418 1057h284l-358 -897h328v379h276v-379h172v-234h-172v-221h-276v221h-672z" />
<glyph unicode="5" horiz-adv-x="1155" d="M43 283l193 135q59 -92 130.5 -139.5t170.5 -47.5q104 0 172.5 56.5t68.5 153t-70.5 145.5t-205.5 49h-316v717h799v-250h-532v-246q78 16 153 16q117 0 221.5 -49t170 -146t65.5 -233q0 -137 -68.5 -243.5t-187.5 -166t-262 -59.5q-172 0 -302 84t-200 224z" />
<glyph unicode="6" horiz-adv-x="1150" d="M80 461q0 80 22.5 147.5t58.5 125t103 151.5l338 467h326l-312 -434h9q114 0 217.5 -58.5t167 -164t63.5 -236.5q0 -137 -68.5 -248t-183 -173.5t-246 -62.5t-246 62.5t-182 173.5t-67.5 250zM352 458.5q0 -96.5 64.5 -163t159 -66.5t159 65.5t64.5 164t-64.5 163 t-159 64.5t-159 -65.5t-64.5 -162z" />
<glyph unicode="7" horiz-adv-x="1075" d="M78 1102v250h950v-74l-618 -1278h-301l548 1102h-579z" />
<glyph unicode="8" horiz-adv-x="1204" d="M94 360q0 233 266 340q-205 119 -204 318q0 168 126 263t320.5 95t320.5 -95t126 -263q0 -201 -203 -318q262 -109 262 -340q0 -117 -64.5 -203.5t-179 -134t-262 -47.5t-263.5 47.5t-180.5 134.5t-64.5 203zM371 370.5q0 -75.5 59 -122.5t172 -47t172.5 47t59.5 123 q0 78 -57.5 125t-174.5 88q-117 -43 -174 -90.5t-57 -123zM414 1006q0 -61 46 -102.5t142 -86.5q96 45 142.5 86t46.5 105q0 68 -53.5 106.5t-135.5 38.5t-135 -39t-53 -108z" />
<glyph unicode="9" horiz-adv-x="1150" d="M80 893q0 137 67.5 247.5t182 173t245.5 62.5q134 0 247.5 -62.5t182 -173t68.5 -249.5q0 -113 -44 -201t-142 -223l-336 -467h-328l314 434h-11q-113 0 -216 58.5t-166.5 164t-63.5 236.5zM352 893q0 -96 65.5 -161.5t157.5 -65.5q95 0 159.5 65.5t64.5 161.5 t-64.5 162.5t-159.5 66.5q-92 0 -157.5 -65.5t-65.5 -163.5z" />
<glyph unicode=":" horiz-adv-x="573" d="M96 166q0 80 55.5 135t137.5 55q80 0 134 -55t54 -135q0 -82 -53 -136.5t-135 -54.5t-137.5 54.5t-55.5 136.5zM96 842q0 80 55.5 135t137.5 55q80 0 134 -55t54 -135q0 -82 -53 -136.5t-135 -54.5t-137.5 54.5t-55.5 136.5z" />
<glyph unicode=";" horiz-adv-x="573" d="M96 842q0 80 55.5 135t137.5 55q80 0 134 -55t54 -135q0 -82 -53 -136.5t-135 -54.5t-137.5 54.5t-55.5 136.5zM131 -365l12 617h316l-109 -617h-219z" />
<glyph unicode="&#x3c;" d="M76 618v76l950 420v-240l-508 -217l508 -217v-241z" />
<glyph unicode="=" d="M113 319v234h923v-234h-923zM113 760v233h923v-233h-923z" />
<glyph unicode="&#x3e;" d="M121 199v241l508 217l-508 217v240l950 -420v-76z" />
<glyph unicode="?" horiz-adv-x="925" d="M49 1065q43 154 149.5 232.5t254.5 78.5q113 0 205 -45t145 -126t53 -187q0 -86 -40 -153.5t-130 -145.5q-84 -74 -113.5 -106.5t-29.5 -73.5q0 -18 4 -43h-234q-22 49 -22 98q0 57 40 111.5t122 119.5q70 57 95 91t25 81q0 55 -36.5 90t-92.5 35q-111 0 -170 -155z M246 166q0 80 55 135t137 55t136.5 -55t54.5 -135q0 -82 -54.5 -136.5t-136.5 -54.5t-137 54.5t-55 136.5z" />
<glyph unicode="@" horiz-adv-x="1951" d="M78 487q0 250 124 451t336 313.5t466 112.5q245 0 444 -105.5t311.5 -285.5t112.5 -395q0 -256 -160 -386.5t-426 -130.5h-100v103q-43 -59 -114 -92t-157 -33q-119 0 -212 57.5t-146 159.5t-53 229t53 228.5t146.5 159t211.5 57.5q84 0 153 -30t112 -85v96h231v-635 q240 16 240 302q0 168 -79 298t-224.5 203.5t-337.5 73.5q-205 0 -367 -83t-252 -233.5t-90 -344.5q0 -193 87 -342.5t242.5 -232.5t352.5 -83q104 0 244 33l43 -193q-139 -51 -316 -51q-240 0 -440.5 111.5t-318 309.5t-117.5 443zM760 485.5q0 -98.5 59.5 -158 t145.5 -59.5q82 0 141 55.5t59 161.5q0 104 -58 160.5t-140 56.5q-86 0 -146.5 -59t-60.5 -157.5z" />
<glyph unicode="A" horiz-adv-x="1353" d="M27 0l604 1376h92l602 -1376h-297l-76 176h-553l-75 -176h-297zM496 403h360l-180 457z" />
<glyph unicode="B" horiz-adv-x="1271" d="M156 0v1352h479q123 0 221 -48.5t152.5 -133.5t54.5 -195q0 -147 -100 -244q112 -41 175.5 -126t63.5 -208q0 -115 -56 -206t-157.5 -141t-230.5 -50h-602zM422 238h315q90 0 141.5 45t51.5 125q0 78 -51.5 124t-141.5 46h-315v-340zM422 805h190q84 0 130 42t46 113.5 t-46 112.5t-130 41h-190v-309z" />
<glyph unicode="C" horiz-adv-x="1474" d="M78 675.5q0 194.5 96 355.5t261 253t364 92q193 0 349.5 -89t246.5 -247l-209 -147q-143 227 -387 227q-125 0 -224.5 -57t-156 -158.5t-56.5 -230.5t56.5 -229.5t156 -157t224.5 -56.5q244 0 387 228l209 -148q-88 -158 -246 -247t-352 -89q-199 0 -364 92.5t-260 253 t-95 355z" />
<glyph unicode="D" horiz-adv-x="1413" d="M156 0v1352h442q215 0 383 -84t261 -235.5t93 -352.5q0 -197 -93 -351.5t-261 -241.5t-383 -87h-442zM432 250h164q135 0 238.5 53t160 150.5t56.5 226.5q0 197 -124 309.5t-331 112.5h-164v-852z" />
<glyph unicode="E" horiz-adv-x="1173" d="M156 0v1352h909v-250h-633v-275h465v-235h-465v-342h658v-250h-934z" />
<glyph unicode="F" horiz-adv-x="1095" d="M156 0v1352h888v-250h-612v-338h502v-250h-502v-514h-276z" />
<glyph unicode="G" horiz-adv-x="1529" d="M78 676q0 197 95 356.5t261 251.5t367 92q178 0 324.5 -76.5t244.5 -216.5l-196 -161q-142 198 -375 198h-2q-129 0 -227.5 -57t-153 -157.5t-54.5 -229.5q0 -131 56.5 -233.5t159 -161t235.5 -58.5q117 0 208 45t148 123v111h-372v239h649v-399q-92 -164 -263 -265.5 t-382 -101.5q-201 0 -366 92.5t-261 253t-96 355.5z" />
<glyph unicode="H" horiz-adv-x="1460" d="M156 0v1352h276v-518h598v518h277v-1352h-277v584h-598v-584h-276z" />
<glyph unicode="I" horiz-adv-x="585" d="M156 0v1352h276v-1352h-276z" />
<glyph unicode="J" horiz-adv-x="796" d="M35 0v236q111 -8 135 -9q100 0 147.5 37t47.5 125v963h276v-992q0 -193 -106.5 -289t-305.5 -96q-96 0 -194 25z" />
<glyph unicode="K" horiz-adv-x="1372" d="M156 0v1352h276v-627l516 627h330l-518 -637l586 -715h-334l-580 705v-705h-276z" />
<glyph unicode="L" horiz-adv-x="1073" d="M156 0v1352h276v-1102h592v-250h-868z" />
<glyph unicode="M" horiz-adv-x="1634" d="M156 0v1376h90l571 -731l572 731h90v-1376h-277v721l-340 -426h-90l-340 426v-721h-276z" />
<glyph unicode="N" horiz-adv-x="1460" d="M156 0v1376h90l784 -831v807h277v-1377h-93l-782 836v-811h-276z" />
<glyph unicode="O" horiz-adv-x="1593" d="M78 675.5q0 194.5 96 355.5t260 253t360.5 92t361.5 -92t262.5 -253t97.5 -355.5t-97.5 -355t-262.5 -253t-361.5 -92.5t-360.5 92.5t-260 253t-96 355zM362 676q0 -129 56.5 -230.5t155 -158t223.5 -56.5q123 0 222 56.5t155.5 158t56.5 230.5q0 127 -56.5 228.5 t-155.5 158.5t-222 57q-125 0 -223.5 -56t-155 -157.5t-56.5 -230.5z" />
<glyph unicode="P" horiz-adv-x="1216" d="M156 0v1352h508q141 0 251.5 -54.5t173 -154t62.5 -228.5t-62.5 -228t-173 -154.5t-251.5 -55.5h-232v-477h-276zM432 719h232q96 0 150 54t54 142q0 86 -55 139.5t-149 53.5h-232v-389z" />
<glyph unicode="Q" horiz-adv-x="1593" d="M78 675.5q0 194.5 96 355.5t260 253t360.5 92t361.5 -92t262.5 -253t97.5 -355q0 -166 -71 -307.5t-194 -237.5q137 -178 311.5 -263t413.5 -85q42 0 189 8v-217q-106 -27 -242 -27q-274 0 -506.5 117t-394.5 346q-111 -35 -227 -35q-197 0 -361 92.5t-260 253t-96 355z M362 676q0 -129 56.5 -230.5t155 -158t223.5 -56.5q123 0 222 56.5t155.5 158t56.5 230.5q0 127 -56.5 228.5t-155.5 158.5t-222 57q-125 0 -223.5 -56t-155 -157.5t-56.5 -230.5z" />
<glyph unicode="R" horiz-adv-x="1310" d="M156 0v1352h508q141 0 251.5 -54.5t173 -154t62.5 -228.5t-63.5 -229t-174.5 -156l383 -530h-311l-350 477h-203v-477h-276zM432 721h232q96 0 150 53t54 141q0 86 -55 139.5t-149 53.5h-232v-387z" />
<glyph unicode="S" horiz-adv-x="1144" d="M61 274l191 144q66 -90 143.5 -143.5t188.5 -53.5q90 0 141 40t51 110q0 59 -38 91t-134 77l-145 65q-156 70 -242 162t-86 227q0 115 58.5 202t161 134t229.5 47q156 0 269.5 -69.5t176.5 -186.5l-188 -145q-103 155 -256 155h-2q-72 0 -120 -33.5t-48 -97.5 q0 -53 35.5 -84.5t121.5 -70.5l154 -68q170 -76 252 -167t82 -228q0 -123 -61.5 -215t-169 -141.5t-242.5 -49.5q-172 0 -308.5 81t-214.5 218z" />
<glyph unicode="T" horiz-adv-x="1198" d="M29 1102v250h1142v-250h-434v-1102h-276v1102h-432z" />
<glyph unicode="U" horiz-adv-x="1433" d="M143 559v793h277v-813q0 -147 83 -227.5t214 -80.5q133 0 215 80t82 228v813h276v-793q0 -178 -74.5 -310t-204.5 -203t-294 -71q-166 0 -296 71t-204 203t-74 310z" />
<glyph unicode="V" horiz-adv-x="1353" d="M27 1352h313l338 -820l336 820h311l-602 -1377h-92z" />
<glyph unicode="W" horiz-adv-x="2119" d="M51 1352h307l301 -799l355 823h92l354 -819l301 795h307l-540 -1377h-90l-377 848l-379 -848h-90z" />
<glyph unicode="X" horiz-adv-x="1257" d="M27 0l448 688l-422 664h316l260 -426l258 426h313l-416 -664l445 -688h-314l-286 449l-287 -449h-315z" />
<glyph unicode="Y" horiz-adv-x="1277" d="M35 1352h307l299 -537l297 537h305l-465 -820v-532h-276v530z" />
<glyph unicode="Z" horiz-adv-x="1204" d="M41 0v74l678 1028h-590v250h1016v-74l-678 -1028h680v-250h-1106z" />
<glyph unicode="[" horiz-adv-x="731" d="M184 -266v1761h469v-223h-233v-1315h233v-223h-469z" />
<glyph unicode="\" horiz-adv-x="1376" d="M6 1597h293l1071 -1845h-293z" />
<glyph unicode="]" horiz-adv-x="731" d="M78 -43h233v1315h-233v223h471v-1761h-471v223z" />
<glyph unicode="^" horiz-adv-x="1097" d="M100 565l404 807h90l401 -807h-264l-182 377l-184 -377h-265z" />
<glyph unicode="_" horiz-adv-x="1028" d="M72 -133h884v-217h-884v217z" />
<glyph unicode="`" horiz-adv-x="1228" d="M373 1548v49h332l149 -428h-201z" />
<glyph unicode="a" horiz-adv-x="1116" d="M74 279q0 137 103.5 215.5t279.5 78.5h254v45q0 84 -48.5 131.5t-140.5 47.5q-78 0 -139 -34t-129 -106l-143 170q176 209 442 209q199 0 316.5 -111.5t117.5 -322.5v-602h-254v98q-55 -57 -134 -90t-175 -33q-162 0 -256 85t-94 219zM352 289q0 -51 40 -81t106 -30 q90 0 151.5 56.5t61.5 144.5v12h-217q-68 0 -105 -25.5t-37 -76.5z" />
<glyph unicode="b" horiz-adv-x="1288" d="M137 0v1536h277v-621q111 121 303 121q141 0 252.5 -68.5t175 -189.5t63.5 -272.5t-63.5 -272t-175 -189.5t-252.5 -69q-104 0 -188.5 39t-137.5 111v-125h-254zM410 506q0 -137 75.5 -208t180.5 -71q112 0 187 77t75 204q0 125 -76 201.5t-186 76.5q-106 0 -181 -72.5 t-75 -207.5z" />
<glyph unicode="c" horiz-adv-x="1130" d="M80 507.5q0 147.5 72.5 268.5t196.5 190.5t273.5 69.5t262 -66.5t178.5 -183.5l-193 -149q-47 70 -105 108.5t-138 38.5q-117 0 -192 -78.5t-75 -197.5q0 -121 75 -200t192 -79q78 0 136 38t107 108l193 -148q-66 -117 -179.5 -184.5t-260.5 -67.5q-150 0 -274 71 t-196.5 192.5t-72.5 269z" />
<glyph unicode="d" horiz-adv-x="1288" d="M80 505.5q0 151.5 63.5 272.5t175 189.5t252.5 68.5q193 0 303 -121v621h277v-1536h-254v125q-51 -72 -136 -111t-190 -39q-141 0 -252.5 69t-175 189.5t-63.5 272zM360 508q0 -127 75 -204t188 -77q104 0 180 71t76 208q0 135 -76 207.5t-180 72.5q-111 0 -187 -76.5 t-76 -201.5z" />
<glyph unicode="e" horiz-adv-x="1165" d="M80 505.5q0 147.5 69.5 269.5t191.5 191.5t269 69.5q139 0 248 -62.5t169 -170t60 -238.5q0 -73 -18 -151h-711q25 -96 99.5 -148.5t185.5 -52.5q150 0 283 102l114 -188q-180 -152 -405 -152q-158 0 -285 70t-198.5 191.5t-71.5 269zM358 608h461q-2 94 -65.5 149.5 t-153.5 55.5q-88 0 -153.5 -55.5t-88.5 -149.5z" />
<glyph unicode="f" horiz-adv-x="700" d="M41 780v234h143v166q0 190 104.5 285.5t286.5 95.5q80 0 152 -23v-231q-45 6 -82 6q-94 0 -139 -36t-45 -122v-141h223v-234h-223v-780h-277v780h-143z" />
<glyph unicode="g" horiz-adv-x="1292" d="M84 535q0 150 63.5 263t174 175.5t247.5 62.5q109 0 194 -39t138 -110v127h254v-901q0 -248 -143.5 -377t-380.5 -129q-287 0 -498 188l146 193q84 -63 160.5 -97t168.5 -34q123 0 197 60t74 179v56q-55 -59 -134 -90t-176 -31q-139 0 -249.5 63.5t-173 178t-62.5 262.5z M365 536.5q0 -122.5 75.5 -197.5t186.5 -75q104 0 180 72t76 203t-75 196.5t-181 65.5q-113 0 -187.5 -71t-74.5 -193.5z" />
<glyph unicode="h" horiz-adv-x="1198" d="M137 0v1536h277v-608q51 51 122.5 79.5t155.5 28.5q172 0 274.5 -111.5t102.5 -295.5v-629h-274v590q0 88 -52.5 142t-136.5 54t-138 -54t-54 -142v-590h-277z" />
<glyph unicode="i" horiz-adv-x="550" d="M98 1382q0 74 51.5 123t125 49t126 -49t52.5 -123q0 -72 -52.5 -121t-126 -49t-125 49.5t-51.5 120.5zM137 0v1014h277v-1014h-277z" />
<glyph unicode="j" horiz-adv-x="550" d="M-129 -139q49 -6 84 -6q92 0 137 36.5t45 120.5v1002h277v-1026q0 -190 -104.5 -285.5t-284.5 -95.5h-7q-78 0 -147 22v232zM98 1382q0 74 51.5 123t125 49t126 -49t52.5 -123q0 -72 -52.5 -121t-126 -49t-125 49.5t-51.5 120.5z" />
<glyph unicode="k" d="M137 0v1536h277v-954l364 432h328l-381 -449l412 -565h-316l-407 561v-561h-277z" />
<glyph unicode="l" horiz-adv-x="550" d="M137 0v1536h277v-1536h-277z" />
<glyph unicode="m" horiz-adv-x="1826" d="M137 0v1014h254v-90q51 53 125 82.5t162 29.5q201 0 301 -145q59 68 146 106.5t192 38.5q178 0 280.5 -111.5t102.5 -295.5v-629h-277v590q0 90 -49 143t-131 53t-134 -53t-52 -137v-596h-277v590q0 90 -49 143t-131 53q-84 0 -135 -53t-51 -143v-590h-277z" />
<glyph unicode="n" horiz-adv-x="1198" d="M137 0v1014h254v-92q53 53 130 83.5t167 30.5q176 0 278.5 -111.5t102.5 -295.5v-629h-274v592q0 88 -52.5 142t-136.5 54t-138 -54t-54 -142v-592h-277z" />
<glyph unicode="o" horiz-adv-x="1245" d="M80 507.5q0 145.5 71.5 267.5t196.5 191.5t274.5 69.5t274.5 -70.5t197.5 -191.5t72.5 -266.5t-72.5 -267t-198.5 -192.5t-275.5 -71t-273.5 71t-195.5 192.5t-71.5 267zM360 506q0 -119 74 -197t189 -78q112 0 187 78t75 197t-75 198.5t-187 79.5q-115 0 -189 -78.5 t-74 -199.5z" />
<glyph unicode="p" horiz-adv-x="1288" d="M137 -369v1383h254v-127q51 72 136 110.5t190 38.5q141 0 252.5 -68.5t175 -188.5t63.5 -271.5t-63.5 -272t-175 -190.5t-252.5 -70q-92 0 -170 32t-133 91v-467h-277zM410 508q0 -135 74.5 -208t181.5 -73q110 0 186 77t76 202q0 127 -75 203.5t-187 76.5 q-104 0 -180 -70.5t-76 -207.5z" />
<glyph unicode="q" horiz-adv-x="1288" d="M80 507.5q0 151.5 63.5 271.5t175 188.5t252.5 68.5q104 0 189.5 -39t136.5 -110v127h254v-1383h-277v467q-55 -59 -132.5 -91t-170.5 -32q-141 0 -252.5 70t-175 190.5t-63.5 272zM360 506q0 -125 76 -202t187 -77q104 0 180 73t76 208q0 137 -76 207.5t-180 70.5 q-113 0 -188 -76.5t-75 -203.5z" />
<glyph unicode="r" horiz-adv-x="794" d="M137 0v1014h254v-121q51 63 123 98t156 35q51 0 90 -12v-244h-74q-125 0 -198.5 -66.5t-73.5 -197.5v-506h-277z" />
<glyph unicode="s" horiz-adv-x="931" d="M45 172l139 168q133 -137 285 -137q55 0 92 21.5t37 62.5q0 33 -23.5 50t-80.5 42l-109 45q-139 57 -207.5 127t-68.5 182q0 143 103 223t269 80q227 0 365 -151l-139 -170q-102 96 -228 96q-51 0 -79.5 -18.5t-28.5 -53.5q0 -29 23.5 -47t82.5 -43l98 -41 q147 -59 216 -127.5t69 -181.5q0 -152 -111.5 -238t-283.5 -86q-133 0 -241.5 52.5t-178.5 144.5z" />
<glyph unicode="t" horiz-adv-x="851" d="M33 780v234h160v256h276v-256h287v-234h-287v-399q0 -86 45 -122t143 -36q25 0 131 8v-231q-98 -25 -190 -25q-193 0 -299 95.5t-106 285.5v424h-160z" />
<glyph unicode="u" horiz-adv-x="1187" d="M127 446v568h276v-590q0 -88 54.5 -141.5t138.5 -53.5q80 0 134 53.5t54 141.5v590h277v-568q0 -141 -60.5 -247.5t-167 -165t-237.5 -58.5q-133 0 -240.5 58.5t-168 165t-60.5 247.5z" />
<glyph unicode="v" horiz-adv-x="1144" d="M25 1014h290l256 -574l256 574h293l-502 -1039h-92z" />
<glyph unicode="w" horiz-adv-x="1755" d="M25 1014h290l240 -578l276 600h93l280 -587l236 565h291l-471 -1039h-91l-290 590l-293 -590h-90z" />
<glyph unicode="x" horiz-adv-x="1087" d="M16 0l371 522l-346 492h309l195 -293l192 293h310l-349 -490l373 -524h-309l-217 324l-219 -324h-310z" />
<glyph unicode="y" horiz-adv-x="1144" d="M25 1014h292l248 -666l264 666h291l-485 -1102q-70 -158 -166 -231.5t-238 -73.5q-86 0 -178 24v232q94 -8 119 -8q74 0 125 28.5t86 108.5l31 69z" />
<glyph unicode="z" horiz-adv-x="958" d="M35 0v74l485 706h-438v234h840v-74l-482 -707h486v-233h-891z" />
<glyph unicode="{" horiz-adv-x="845" d="M92 496v235h127q57 0 85 25.5t28 81.5q0 43 -19 149q-10 55 -18 114.5t-8 104.5q0 289 315 289h166v-223h-119q-127 0 -127 -133q0 -39 21 -162q25 -131 24 -186q0 -74 -35.5 -117t-109.5 -62q76 -18 110.5 -60t34.5 -116q0 -45 -10 -107.5t-12 -74.5q-23 -117 -23 -166 q0 -66 33 -99.5t94 -33.5h119v-221h-166q-315 0 -315 286q0 66 26 222q18 102 19 147q0 55 -28 81t-85 26h-127z" />
<glyph unicode="|" horiz-adv-x="679" d="M225 -248v1845h230v-1845h-230z" />
<glyph unicode="}" horiz-adv-x="845" d="M78 -45h117q61 0 95 34t34 99q0 49 -23 166q-2 12 -12 74.5t-10 107.5q0 74 34.5 116t108.5 60q-74 18 -108.5 61.5t-34.5 117.5q0 55 24 186q20 123 21 162q0 133 -129 133h-117v223h166q315 0 315 -289q0 -45 -8 -104.5t-19 -114.5q-18 -106 -18 -149q0 -55 27.5 -81 t85.5 -26h125v-235h-125q-57 0 -85 -26t-28 -81q0 -45 18 -147q27 -156 27 -222q0 -287 -315 -286h-166v221z" />
<glyph unicode="~" d="M76 592q0 127 70.5 210t175.5 83q39 0 86 -14.5t88 -39.5l180 -110q43 -25 66.5 -35t45.5 -10q33 0 51.5 22.5t18.5 55.5v41h209q6 -39 6 -76q0 -129 -71.5 -211t-176.5 -82q-88 0 -174 53l-180 109q-37 25 -63.5 36t-49.5 11q-33 0 -50 -21.5t-17 -58.5v-39h-211 q-4 53 -4 76z" />
<glyph unicode="&#xa1;" horiz-adv-x="710" d="M166 848q0 82 54 135t138 53q80 0 134.5 -53t54.5 -135t-54.5 -136.5t-134.5 -54.5q-84 0 -138 54.5t-54 136.5zM190 -369l54 885h225l51 -885h-330z" />
<glyph unicode="&#xa2;" horiz-adv-x="1140" d="M68 667.5q0 180.5 106.5 319.5t276.5 189v358h241v-342q119 -16 211 -80.5t150 -165.5l-193 -147q-49 70 -107.5 107.5t-138.5 37.5q-117 0 -190.5 -79t-73.5 -197.5t74 -197.5t190 -79q80 0 138.5 38t107.5 108l191 -148q-55 -100 -147.5 -164.5t-211.5 -81.5v-342h-241 v359q-170 49 -276.5 188t-106.5 319.5z" />
<glyph unicode="&#xa3;" horiz-adv-x="1165" d="M86 0v59q135 98 202.5 187.5t67.5 197.5v21h-250v233h162q-43 82 -65.5 144.5t-22.5 138.5q0 119 58.5 208t160 138t228.5 49q172 0 296 -94t173 -276l-232 -84q-63 199 -219 198q-86 0 -135 -51t-49 -133q0 -57 21.5 -106.5t68.5 -131.5h330v-233h-250v-16 q0 -126 -66 -216h510v-233h-989z" />
<glyph unicode="&#xa4;" horiz-adv-x="1345" d="M35 190l211 224q-80 115 -80 262q0 143 80 258l-211 215l166 166l217 -223q111 63 248 63q135 0 256 -65l223 225l166 -166l-219 -215q78 -117 77 -258q1 -145 -79 -260l221 -226l-164 -163l-229 233q-115 -63 -252 -63q-135 0 -248 61l-217 -231zM449 676 q0 -98 60 -161.5t159 -63.5q96 0 157.5 63.5t61.5 161.5t-62.5 161.5t-156.5 63.5q-98 0 -158.5 -63.5t-60.5 -161.5z" />
<glyph unicode="&#xa5;" horiz-adv-x="1226" d="M10 1352h307l297 -434l297 434h306l-402 -584h307v-223h-368v-127h368v-223h-368v-195h-277v195h-371v223h371v127h-371v223h308z" />
<glyph unicode="&#xa6;" horiz-adv-x="679" d="M225 -248v615h230v-615h-230zM225 983v614h230v-614h-230z" />
<glyph unicode="&#xa7;" horiz-adv-x="1232" d="M59 717q0 109 64.5 184.5t173.5 108.5q-4 33 -4 51q0 147 104.5 238.5t278.5 91.5q133 0 237.5 -57.5t165.5 -162.5l-174 -141q-47 63 -102 96t-129 33q-59 0 -91 -24.5t-32 -73.5t32.5 -81t123.5 -93l184 -125q145 -92 214 -172t69 -188.5t-65 -184.5t-173 -108 q4 -33 4 -52q0 -147 -104.5 -238t-278.5 -91q-133 0 -238.5 57t-166.5 162l174 141q96 -129 231 -129q59 0 91 24.5t32 73.5t-33 82t-121 92l-186 125q-145 92 -213 173t-68 188zM317 725q0 -41 33 -77t127 -99l185 -125q123 -78 180 -141q72 41 71 110q0 41 -32.5 78 t-124.5 98l-201 133q-115 76 -168 132q-70 -39 -70 -109z" />
<glyph unicode="&#xa8;" horiz-adv-x="1228" d="M205 1384.5q0 65.5 49 112.5t119 47q66 0 115 -47t49 -112.5t-49.5 -112.5t-114.5 -47q-70 0 -119 47t-49 112.5zM692 1384.5q0 65.5 49.5 112.5t118.5 47q66 0 115 -47t49 -112.5t-49 -112.5t-115 -47q-69 0 -118.5 47t-49.5 112.5z" />
<glyph unicode="&#xa9;" horiz-adv-x="1593" d="M78 674q0 197 98 357.5t263 252.5t357.5 92t357.5 -92t263.5 -253t98.5 -355.5t-98.5 -355t-264.5 -253t-358.5 -92.5t-357.5 92.5t-262 252t-97 354.5zM258 674q0 -160 74 -282t196.5 -187.5t266.5 -65.5q141 0 265 65.5t199.5 187.5t75.5 282t-74.5 282.5t-199.5 189 t-266 66.5q-143 0 -266 -66.5t-197 -189t-74 -282.5zM424 675.5q0 106.5 51 193.5t139 137.5t197 50.5q94 0 173 -43t136 -119l-143 -125q-33 45 -73 69.5t-91 24.5q-78 0 -127 -53t-49 -135q0 -80 49 -133.5t127 -53.5q53 0 92 24t72 69l143 -125q-57 -76 -137 -118 t-174 -42q-107 0 -195 49t-139 136t-51 193.5z" />
<glyph unicode="&#xaa;" horiz-adv-x="749" d="M55 684q0 90 66.5 139t183.5 49h137v23q0 86 -102 86q-43 0 -82 -16.5t-88 -51.5l-86 138q119 106 281 106q135 0 212.5 -71.5t77.5 -208.5v-377h-194v49q-70 -66 -185 -66q-104 0 -162.5 57.5t-58.5 143.5zM270 692.5q0 -26.5 19.5 -42t52.5 -15.5q43 0 71.5 26.5 t28.5 71.5v19h-100q-35 0 -53.5 -16.5t-18.5 -43z" />
<glyph unicode="&#xab;" horiz-adv-x="1222" d="M59 520v74l400 430l176 -154l-277 -311l277 -313l-176 -154zM586 520v74l399 430l176 -154l-276 -311l276 -313l-176 -154z" />
<glyph unicode="&#xac;" d="M88 539v235h903v-563h-258v328h-645z" />
<glyph unicode="&#xad;" horiz-adv-x="700" d="M92 541v231h516v-231h-516z" />
<glyph unicode="&#xae;" horiz-adv-x="1175" d="M68 893q0 141 70.5 262t190.5 191.5t261 70.5q139 0 259 -70.5t189.5 -191.5t69.5 -262q0 -143 -69.5 -264t-189.5 -191.5t-259 -70.5q-141 0 -261 70.5t-190.5 191.5t-70.5 264zM205 893q0 -111 51 -202t139 -143t195 -52q104 0 192 52t139.5 143t51.5 202t-51.5 201 t-139.5 142t-192 52q-106 0 -194.5 -52t-139.5 -142t-51 -201zM383 635v514h213q90 0 148.5 -49t58.5 -131q0 -94 -80 -148l135 -186h-158l-118 153h-56v-153h-143zM526 911h70q27 0 43 15.5t16 40.5q0 27 -16 42t-43 15h-70v-113z" />
<glyph unicode="&#xaf;" horiz-adv-x="1228" d="M305 1274v217h619v-217h-619z" />
<glyph unicode="&#xb0;" horiz-adv-x="739" d="M49 1061q0 84 43 156.5t117 115.5t162 43t160.5 -42t115.5 -114.5t43 -158.5t-43 -159t-115.5 -115t-160.5 -42t-162 43t-117 116t-43 157zM233 1059q0 -57 39 -97t98.5 -40t98.5 39.5t39 97.5q0 59 -39 99t-98.5 40t-98.5 -40t-39 -99z" />
<glyph unicode="&#xb1;" d="M113 0v221h923v-221h-923zM113 645v223h329v275h265v-275h329v-223h-329v-289h-265v289h-329z" />
<glyph unicode="&#xb2;" horiz-adv-x="788" d="M68 743v43l305 332q55 63 80.5 107.5t25.5 91.5q0 49 -26.5 78.5t-71.5 29.5t-72.5 -29.5t-27.5 -82.5q0 -10 4 -60h-203q-8 35 -8 72q0 74 38 140.5t108.5 107.5t162.5 41q131 0 219 -79t88 -200q0 -88 -47 -164.5t-139 -171.5l-66 -69h271v-185z" />
<glyph unicode="&#xb3;" horiz-adv-x="737" d="M23 930l141 100q39 -57 78 -84.5t92 -27.5t88 29.5t35 80.5q0 98 -156 98h-98v52l159 235h-272v184h563v-55l-172 -256q78 -26 132.5 -94t54.5 -164q0 -86 -44 -153.5t-119 -106.5t-165 -39q-109 0 -191.5 54.5t-125.5 146.5z" />
<glyph unicode="&#xb4;" horiz-adv-x="1228" d="M373 1169l149 428h332v-49l-281 -379h-200z" />
<glyph unicode="&#xb5;" horiz-adv-x="1255" d="M137 -369v1383h277v-584q0 -90 52 -147.5t136 -57.5q86 0 139.5 57.5t53.5 147.5v584h274v-662q0 -66 22.5 -95.5t71.5 -29.5l56 2v-229q-68 -20 -148 -20q-154 0 -217 106q-41 -51 -100.5 -81t-128.5 -30q-63 0 -117.5 25t-93.5 68v-437h-277z" />
<glyph unicode="&#xb6;" horiz-adv-x="1255" d="M66 901q0 135 65.5 237.5t181 158t260.5 55.5h119v-908h-119q-143 0 -258.5 57.5t-182 161t-66.5 238.5zM504 -133q111 -8 131 -8q98 0 144 36.5t46 127.5v1329h277v-1358q0 -195 -106.5 -291t-301.5 -96q-96 -1 -190 24v236z" />
<glyph unicode="&#xb7;" horiz-adv-x="573" d="M96 655q0 80 55.5 135.5t137.5 55.5q80 0 134 -55.5t54 -135.5q0 -82 -53 -136t-135 -54t-137.5 54t-55.5 136z" />
<glyph unicode="&#xb8;" horiz-adv-x="1228" d="M379 -190q53 -4 123 -5q59 0 93 30t34 87q0 53 -27 119l109 49q66 -37 101.5 -93t35.5 -130q0 -113 -85 -186.5t-233 -73.5q-79 0 -151 20v183z" />
<glyph unicode="&#xb9;" horiz-adv-x="757" d="M86 745v185h211v483h-193v184h400v-667h176v-185h-594z" />
<glyph unicode="&#xba;" horiz-adv-x="817" d="M59 821q0 94 47.5 171t127 121t174 44t175.5 -44t128 -121t47 -171t-47 -172t-127 -122t-176 -44q-95 0 -174.5 44t-127 122t-47.5 172zM272 821.5q0 -65.5 37 -105.5t98.5 -40t99.5 41t38 104q0 66 -38 106t-99.5 40t-98.5 -40t-37 -105.5z" />
<glyph unicode="&#xbb;" horiz-adv-x="1222" d="M63 246l275 313l-275 311l177 154l397 -430v-74l-397 -428zM590 246l274 313l-274 311l176 154l397 -430v-74l-397 -428z" />
<glyph unicode="&#xbc;" horiz-adv-x="1918" d="M86 500v184h211v483h-193v185h400v-668h176v-184h-594zM514 0l778 1352h224l-779 -1352h-223zM1174 131v53l253 668h211l-213 -553h183l2 223h184v-223h102v-168h-102v-131h-186v131h-434z" />
<glyph unicode="&#xbd;" horiz-adv-x="1988" d="M86 500v184h211v483h-193v185h400v-668h176v-184h-594zM514 0l778 1352h224l-779 -1352h-223zM1268 -2v43l305 332q55 63 80.5 107t25.5 91q0 49 -26.5 79t-71.5 30t-72.5 -29.5t-27.5 -83.5q0 -10 4 -59h-203q-8 35 -8 72q0 74 38 140t108.5 107t162.5 41 q131 0 219 -78.5t88 -199.5q0 -88 -47 -165t-139 -171l-66 -70h271v-184z" />
<glyph unicode="&#xbe;" horiz-adv-x="1826" d="M23 684l141 100q39 -57 78 -84.5t92 -27.5t88 29.5t35 80.5q0 98 -156 99h-98v51l159 235h-272v185h563v-56l-172 -256q78 -26 132.5 -93.5t54.5 -164.5q0 -86 -44 -153.5t-119 -106.5t-165 -39q-109 0 -191.5 54.5t-125.5 146.5zM422 0l778 1352h223l-778 -1352h-223z M1081 131v53l254 668h211l-213 -553h183l2 223h184v-223h102v-168h-102v-131h-186v131h-435z" />
<glyph unicode="&#xbf;" horiz-adv-x="923" d="M70 -23q0 100 43 168t125 140q82 74 112.5 110.5t30.5 79.5l-2 41h233q23 -59 23 -96q0 -68 -41 -118t-121 -122q-66 -59 -93.5 -98t-27.5 -86q0 -59 39 -96t92 -37q55 0 96.5 38t69.5 115l228 -98q-43 -154 -149.5 -232.5t-252.5 -78.5q-113 0 -205 47t-146 131t-54 192 zM295 848q0 82 54 135t136 53t136.5 -53t54.5 -135t-54.5 -136.5t-136.5 -54.5t-136 54.5t-54 136.5z" />
<glyph unicode="&#xc0;" horiz-adv-x="1353" d="M27 0l604 1376h92l602 -1376h-297l-76 176h-553l-75 -176h-297zM297 1815v49h332l149 -381h-200zM496 403h360l-180 457z" />
<glyph unicode="&#xc1;" horiz-adv-x="1353" d="M27 0l604 1376h92l602 -1376h-297l-76 176h-553l-75 -176h-297zM496 403h360l-180 457zM569 1483l150 381h332v-49l-281 -332h-201z" />
<glyph unicode="&#xc2;" horiz-adv-x="1353" d="M27 0l604 1376h92l602 -1376h-297l-76 176h-553l-75 -176h-297zM283 1483l303 381h182l303 -381h-211l-184 164l-184 -164h-209zM496 403h360l-180 457z" />
<glyph unicode="&#xc3;" horiz-adv-x="1353" d="M27 0l604 1376h92l602 -1376h-297l-76 176h-553l-75 -176h-297zM270 1575q0 123 69 198.5t169 75.5q72 0 151 -43l62 -37q6 -4 25.5 -14t36 -15t30.5 -5q29 0 43 19.5t14 49.5v25h211q4 -45 4 -68q0 -125 -68.5 -200.5t-166.5 -75.5q-72 0 -156 45l-61 33q-57 35 -90 34 q-29 0 -43.5 -19t-14.5 -48v-25h-211q-4 45 -4 70zM496 403h360l-180 457z" />
<glyph unicode="&#xc4;" horiz-adv-x="1353" d="M27 0l604 1376h92l602 -1376h-297l-76 176h-553l-75 -176h-297zM248 1667q0 68 49 114t115 46q70 0 119 -46t49 -114q0 -63 -49.5 -110.5t-118.5 -47.5q-64 0 -114 48.5t-50 109.5zM496 403h360l-180 457zM776 1665q0 68 50.5 115t115.5 47q68 0 117 -47t49 -115 q0 -63 -49 -110.5t-117 -47.5q-63 0 -114.5 48.5t-51.5 109.5z" />
<glyph unicode="&#xc5;" horiz-adv-x="1353" d="M27 0l604 1376h92l602 -1376h-297l-76 176h-553l-75 -176h-297zM418 1634q0 104 73.5 176t184.5 72q113 0 186.5 -71.5t73.5 -176.5q0 -106 -74 -179t-186 -73q-111 0 -184.5 73t-73.5 179zM496 403h360l-180 457zM594 1634q0 -37 23.5 -61.5t60.5 -24.5q35 0 59.5 24.5 t24.5 61.5q0 35 -24.5 59.5t-59.5 24.5q-37 0 -60.5 -24.5t-23.5 -59.5z" />
<glyph unicode="&#xc6;" horiz-adv-x="1744" d="M10 0l692 1352h936v-250h-616l45 -275h406v-235h-367l57 -342h500v-250h-727l-31 176h-506l-92 -176h-297zM514 403h352l-88 551z" />
<glyph unicode="&#xc7;" horiz-adv-x="1474" d="M78 675.5q0 194.5 96 355.5t261 253t364 92q193 0 349.5 -89t246.5 -247l-209 -147q-143 227 -387 227q-125 0 -224.5 -57t-156 -158.5t-56.5 -230.5t56.5 -229.5t156 -157t224.5 -56.5q244 0 387 228l209 -148q-88 -158 -246 -247t-352 -89q-199 0 -364 92.5t-260 253 t-95 355zM520 -190q53 -4 123 -5q59 0 93 30t34 87q0 53 -27 119l109 49q66 -37 101.5 -93t35.5 -130q0 -113 -85 -186.5t-232 -73.5q-80 0 -152 20v183z" />
<glyph unicode="&#xc8;" horiz-adv-x="1173" d="M156 0v1352h909v-250h-633v-275h465v-235h-465v-342h658v-250h-934zM223 1815v49h332l150 -381h-201z" />
<glyph unicode="&#xc9;" horiz-adv-x="1173" d="M156 0v1352h909v-250h-633v-275h465v-235h-465v-342h658v-250h-934zM496 1483l149 381h332v-49l-281 -332h-200z" />
<glyph unicode="&#xca;" horiz-adv-x="1173" d="M156 0v1352h909v-250h-633v-275h465v-235h-465v-342h658v-250h-934zM209 1483l303 381h182l303 -381h-211l-184 164l-184 -164h-209z" />
<glyph unicode="&#xcb;" horiz-adv-x="1173" d="M156 0v1352h909v-250h-633v-275h465v-235h-465v-342h658v-250h-934zM174 1667q0 68 49 114t115 46q70 0 119 -46t49 -114q0 -63 -49 -110.5t-119 -47.5q-64 0 -114 48.5t-50 109.5zM702 1665q0 68 50.5 115t115.5 47q68 0 117 -47t49 -115q0 -63 -49 -110.5t-117 -47.5 q-63 0 -114.5 48.5t-51.5 109.5z" />
<glyph unicode="&#xcc;" horiz-adv-x="585" d="M-86 1815v49h332l149 -381h-200zM156 0v1352h276v-1352h-276z" />
<glyph unicode="&#xcd;" horiz-adv-x="585" d="M156 0v1352h276v-1352h-276zM186 1483l150 381h332v-49l-281 -332h-201z" />
<glyph unicode="&#xce;" horiz-adv-x="585" d="M-100 1483l303 381h182l303 -381h-211l-184 164l-184 -164h-209zM156 0v1352h276v-1352h-276z" />
<glyph unicode="&#xcf;" horiz-adv-x="585" d="M-135 1667q0 68 49 114t115 46q70 0 119 -46t49 -114q0 -63 -49.5 -110.5t-118.5 -47.5q-64 0 -114 48.5t-50 109.5zM156 0v1352h276v-1352h-276zM393 1665q0 68 50.5 115t115.5 47q68 0 117 -47t49 -115q0 -63 -49 -110.5t-117 -47.5q-63 0 -114.5 48.5t-51.5 109.5z " />
<glyph unicode="&#xd0;" horiz-adv-x="1413" d="M-16 526v232h172v594h442q215 0 383 -84t261 -235.5t93 -352.5q0 -197 -93 -351.5t-261 -241.5t-383 -87h-442v526h-172zM432 250h164q135 0 238.5 53t160 150.5t56.5 226.5q0 197 -124 309.5t-331 112.5h-164v-344h221v-232h-221v-276z" />
<glyph unicode="&#xd1;" horiz-adv-x="1460" d="M156 0v1376h90l784 -831v807h277v-1377h-93l-782 836v-811h-276zM324 1575q0 123 68.5 198.5t168.5 75.5q72 0 152 -43l61 -37q6 -4 25.5 -14t36 -15t30.5 -5q29 0 43.5 19.5t14.5 49.5v25h211q4 -45 4 -68q0 -125 -69 -200.5t-167 -75.5q-71 0 -155 45l-62 33 q-57 35 -90 34q-29 0 -43 -19t-14 -48v-25h-211q-4 45 -4 70z" />
<glyph unicode="&#xd2;" horiz-adv-x="1593" d="M78 675.5q0 194.5 96 355.5t260 253t360.5 92t361.5 -92t262.5 -253t97.5 -355.5t-97.5 -355t-262.5 -253t-361.5 -92.5t-360.5 92.5t-260 253t-96 355zM362 676q0 -129 56.5 -230.5t155 -158t223.5 -56.5q123 0 222 56.5t155.5 158t56.5 230.5q0 127 -56.5 228.5 t-155.5 158.5t-222 57q-125 0 -223.5 -56t-155 -157.5t-56.5 -230.5zM416 1815v49h332l149 -381h-201z" />
<glyph unicode="&#xd3;" horiz-adv-x="1593" d="M78 675.5q0 194.5 96 355.5t260 253t360.5 92t361.5 -92t262.5 -253t97.5 -355.5t-97.5 -355t-262.5 -253t-361.5 -92.5t-360.5 92.5t-260 253t-96 355zM362 676q0 -129 56.5 -230.5t155 -158t223.5 -56.5q123 0 222 56.5t155.5 158t56.5 230.5q0 127 -56.5 228.5 t-155.5 158.5t-222 57q-125 0 -223.5 -56t-155 -157.5t-56.5 -230.5zM688 1483l150 381h331v-49l-280 -332h-201z" />
<glyph unicode="&#xd4;" horiz-adv-x="1593" d="M78 675.5q0 194.5 96 355.5t260 253t360.5 92t361.5 -92t262.5 -253t97.5 -355.5t-97.5 -355t-262.5 -253t-361.5 -92.5t-360.5 92.5t-260 253t-96 355zM362 676q0 -129 56.5 -230.5t155 -158t223.5 -56.5q123 0 222 56.5t155.5 158t56.5 230.5q0 127 -56.5 228.5 t-155.5 158.5t-222 57q-125 0 -223.5 -56t-155 -157.5t-56.5 -230.5zM401 1483l304 381h182l303 -381h-211l-184 164l-185 -164h-209z" />
<glyph unicode="&#xd5;" horiz-adv-x="1593" d="M78 675.5q0 194.5 96 355.5t260 253t360.5 92t361.5 -92t262.5 -253t97.5 -355.5t-97.5 -355t-262.5 -253t-361.5 -92.5t-360.5 92.5t-260 253t-96 355zM362 676q0 -129 56.5 -230.5t155 -158t223.5 -56.5q123 0 222 56.5t155.5 158t56.5 230.5q0 127 -56.5 228.5 t-155.5 158.5t-222 57q-125 0 -223.5 -56t-155 -157.5t-56.5 -230.5zM389 1575q0 123 68.5 198.5t169.5 75.5q72 0 151 -43l62 -37q6 -4 25.5 -14t36 -15t30.5 -5q29 0 43 19.5t14 49.5v25h211q4 -45 4 -68q0 -125 -68.5 -200.5t-166.5 -75.5q-72 0 -156 45l-61 33 q-57 35 -90 34q-29 0 -43.5 -19t-14.5 -48v-25h-211q-4 45 -4 70z" />
<glyph unicode="&#xd6;" horiz-adv-x="1593" d="M78 675.5q0 194.5 96 355.5t260 253t360.5 92t361.5 -92t262.5 -253t97.5 -355.5t-97.5 -355t-262.5 -253t-361.5 -92.5t-360.5 92.5t-260 253t-96 355zM362 676q0 -129 56.5 -230.5t155 -158t223.5 -56.5q123 0 222 56.5t155.5 158t56.5 230.5q0 127 -56.5 228.5 t-155.5 158.5t-222 57q-125 0 -223.5 -56t-155 -157.5t-56.5 -230.5zM367 1667q0 68 49 114t114 46q70 0 119 -46t49 -114q0 -63 -49 -110.5t-119 -47.5q-63 0 -113 48.5t-50 109.5zM895 1665q0 68 50 115t116 47q68 0 117 -47t49 -115q0 -63 -49.5 -110.5t-116.5 -47.5 q-64 0 -115 48.5t-51 109.5z" />
<glyph unicode="&#xd7;" d="M106 360l302 302l-302 301l164 163l303 -301l301 301l164 -163l-301 -301l301 -302l-164 -165l-303 301l-301 -301z" />
<glyph unicode="&#xd8;" horiz-adv-x="1593" d="M63 106l152 152q-137 186 -137 418q0 195 96 355.5t260 252.5t361 92q227 0 411 -123l158 158l166 -166l-154 -153q68 -88 104 -193.5t36 -222.5q0 -195 -97.5 -355.5t-262.5 -253t-361 -92.5q-223 0 -410 121l-156 -155zM350 676q0 -127 53 -227l625 622 q-106 61 -231 62q-127 0 -229.5 -58.5t-160 -163t-57.5 -235.5zM565 279q102 -59 232 -60q125 0 227 58.5t160.5 163t58.5 235.5q0 123 -55 227z" />
<glyph unicode="&#xd9;" horiz-adv-x="1433" d="M143 559v793h277v-813q0 -147 83 -227.5t214 -80.5q133 0 215 80t82 228v813h276v-793q0 -178 -74.5 -310t-204.5 -203t-294 -71q-166 0 -296 71t-204 203t-74 310zM336 1815v49h332l149 -381h-201z" />
<glyph unicode="&#xda;" horiz-adv-x="1433" d="M143 559v793h277v-813q0 -147 83 -227.5t214 -80.5q133 0 215 80t82 228v813h276v-793q0 -178 -74.5 -310t-204.5 -203t-294 -71q-166 0 -296 71t-204 203t-74 310zM608 1483l150 381h332v-49l-281 -332h-201z" />
<glyph unicode="&#xdb;" horiz-adv-x="1433" d="M143 559v793h277v-813q0 -147 83 -227.5t214 -80.5q133 0 215 80t82 228v813h276v-793q0 -178 -74.5 -310t-204.5 -203t-294 -71q-166 0 -296 71t-204 203t-74 310zM322 1483l303 381h182l303 -381h-211l-184 164l-185 -164h-208z" />
<glyph unicode="&#xdc;" horiz-adv-x="1433" d="M143 559v793h277v-813q0 -147 83 -227.5t214 -80.5q133 0 215 80t82 228v813h276v-793q0 -178 -74.5 -310t-204.5 -203t-294 -71q-166 0 -296 71t-204 203t-74 310zM287 1667q0 68 49 114t115 46q70 0 118.5 -46t48.5 -114q0 -63 -49 -110.5t-118 -47.5q-64 0 -114 48.5 t-50 109.5zM815 1665q0 68 50 115t116 47q68 0 117 -47t49 -115q0 -63 -49 -110.5t-117 -47.5q-63 0 -114.5 48.5t-51.5 109.5z" />
<glyph unicode="&#xdd;" horiz-adv-x="1277" d="M35 1352h307l299 -537l297 537h305l-465 -820v-532h-276v530zM528 1483l150 381h332v-49l-281 -332h-201z" />
<glyph unicode="&#xde;" horiz-adv-x="1216" d="M156 0v1352h276v-207h232q141 0 251.5 -54.5t173 -154.5t62.5 -231.5t-62.5 -231.5t-173 -155.5t-251.5 -55.5h-232v-262h-276zM432 504h232q96 0 150 55t54 143q0 90 -54 144.5t-150 54.5h-232v-397z" />
<glyph unicode="&#xdf;" horiz-adv-x="1331" d="M137 0v1069q0 231 132 361.5t362 130.5q195 0 310.5 -91.5t115.5 -240.5q0 -78 -35 -170l-74 -191q-33 -76 -33 -112q0 -33 19.5 -59.5t59.5 -52.5t85 -52q100 -61 150.5 -127t50.5 -166q0 -147 -105.5 -235.5t-279.5 -88.5q-111 0 -203 35t-157 90l104 195 q59 -39 127 -62.5t129 -23.5q53 0 85 21.5t32 64.5q0 39 -29 63.5t-131 83.5q-106 63 -157.5 119.5t-51.5 130.5q0 53 37 150l70 178q29 68 28 135q0 72 -41 114t-119 42q-90 0 -149 -62.5t-59 -191.5v-1057h-273z" />
<glyph unicode="&#xe0;" horiz-adv-x="1116" d="M74 279q0 137 103.5 215.5t279.5 78.5h254v45q0 84 -48.5 131.5t-140.5 47.5q-78 0 -139 -34t-129 -106l-143 170q176 209 442 209q199 0 316.5 -111.5t117.5 -322.5v-602h-254v98q-55 -57 -134 -90t-175 -33q-162 0 -256 85t-94 219zM174 1548v49h332l149 -428h-200z M352 289q0 -51 40 -81t106 -30q90 0 151.5 56.5t61.5 144.5v12h-217q-68 0 -105 -25.5t-37 -76.5z" />
<glyph unicode="&#xe1;" horiz-adv-x="1116" d="M74 279q0 137 103.5 215.5t279.5 78.5h254v45q0 84 -48.5 131.5t-140.5 47.5q-78 0 -139 -34t-129 -106l-143 170q176 209 442 209q199 0 316.5 -111.5t117.5 -322.5v-602h-254v98q-55 -57 -134 -90t-175 -33q-162 0 -256 85t-94 219zM352 289q0 -51 40 -81t106 -30 q90 0 151.5 56.5t61.5 144.5v12h-217q-68 0 -105 -25.5t-37 -76.5zM453 1169l149 428h332v-49l-281 -379h-200z" />
<glyph unicode="&#xe2;" horiz-adv-x="1116" d="M74 279q0 137 103.5 215.5t279.5 78.5h254v45q0 84 -48.5 131.5t-140.5 47.5q-78 0 -139 -34t-129 -106l-143 170q176 209 442 209q199 0 316.5 -111.5t117.5 -322.5v-602h-254v98q-55 -57 -134 -90t-175 -33q-162 0 -256 85t-94 219zM186 1169l277 428h182l275 -428 h-203l-164 189l-164 -189h-203zM352 289q0 -51 40 -81t106 -30q90 0 151.5 56.5t61.5 144.5v12h-217q-68 0 -105 -25.5t-37 -76.5z" />
<glyph unicode="&#xe3;" horiz-adv-x="1116" d="M74 279q0 137 103.5 215.5t279.5 78.5h254v45q0 84 -48.5 131.5t-140.5 47.5q-78 0 -139 -34t-129 -106l-143 170q176 209 442 209q199 0 316.5 -111.5t117.5 -322.5v-602h-254v98q-55 -57 -134 -90t-175 -33q-162 0 -256 85t-94 219zM158 1276q0 127 66.5 202.5 t164.5 75.5q76 0 148 -45l57 -36q27 -20 44 -28.5t38 -8.5q57 0 57 71v25h209q6 -37 6 -70q0 -125 -66.5 -200.5t-166.5 -75.5q-76 0 -146 45l-57 35q-8 6 -24.5 17t-30 16.5t-27.5 5.5q-57 0 -57 -72v-25h-211q-4 23 -4 68zM352 289q0 -51 40 -81t106 -30q90 0 151.5 56.5 t61.5 144.5v12h-217q-68 0 -105 -25.5t-37 -76.5z" />
<glyph unicode="&#xe4;" horiz-adv-x="1116" d="M74 279q0 137 103.5 215.5t279.5 78.5h254v45q0 84 -48.5 131.5t-140.5 47.5q-78 0 -139 -34t-129 -106l-143 170q176 209 442 209q199 0 316.5 -111.5t117.5 -322.5v-602h-254v98q-55 -57 -134 -90t-175 -33q-162 0 -256 85t-94 219zM143 1384.5q0 65.5 49.5 112.5 t118.5 47q66 0 115 -47t49 -112.5t-49 -112.5t-115 -47q-69 0 -118.5 47t-49.5 112.5zM352 289q0 -51 40 -81t106 -30q90 0 151.5 56.5t61.5 144.5v12h-217q-68 0 -105 -25.5t-37 -76.5zM631 1384.5q0 65.5 49 112.5t119 47q66 0 115 -47t49 -112.5t-49.5 -112.5t-114.5 -47 q-70 0 -119 47t-49 112.5z" />
<glyph unicode="&#xe5;" horiz-adv-x="1116" d="M74 279q0 137 103.5 215.5t279.5 78.5h254v45q0 84 -48.5 131.5t-140.5 47.5q-78 0 -139 -34t-129 -106l-143 170q176 209 442 209q199 0 316.5 -111.5t117.5 -322.5v-602h-254v98q-55 -57 -134 -90t-175 -33q-162 0 -256 85t-94 219zM293 1374q0 106 73.5 178t184.5 72 q113 0 186.5 -70.5t73.5 -179t-73.5 -180.5t-186.5 -72q-111 0 -184.5 72t-73.5 180zM352 289q0 -51 40 -81t106 -30q90 0 151.5 56.5t61.5 144.5v12h-217q-68 0 -105 -25.5t-37 -76.5zM469 1374q0 -37 23.5 -60.5t60.5 -23.5q35 0 59.5 24.5t24.5 59.5q0 37 -24.5 60.5 t-59.5 23.5t-59.5 -23.5t-24.5 -60.5z" />
<glyph unicode="&#xe6;" horiz-adv-x="1798" d="M74 281q0 141 103.5 223t279.5 82h254v32q0 84 -48.5 131.5t-138.5 47.5q-76 0 -139 -35t-131 -105l-141 170q176 209 440 209q227 0 334 -149q68 72 159 110.5t199 38.5q137 0 245.5 -62.5t169 -170t60.5 -238.5q0 -88 -20 -162h-707q27 -92 101.5 -141t181.5 -49 q150 0 280 102l115 -188q-176 -152 -401 -152q-137 0 -247 54.5t-179 150.5q-59 -100 -162.5 -152.5t-237.5 -52.5q-178 0 -274 86t-96 220zM352 297q0 -55 39 -86t105 -31q90 0 152.5 55.5t62.5 141.5v26h-217q-68 0 -105 -27.5t-37 -78.5zM985 586h467q2 104 -59.5 165.5 t-157.5 61.5q-94 0 -161.5 -61.5t-88.5 -165.5z" />
<glyph unicode="&#xe7;" horiz-adv-x="1130" d="M80 507.5q0 147.5 72.5 268.5t196.5 190.5t273.5 69.5t262 -66.5t178.5 -183.5l-193 -149q-47 70 -105 108.5t-138 38.5q-117 0 -192 -78.5t-75 -197.5q0 -121 75 -200t192 -79q78 0 136 38t107 108l193 -148q-66 -117 -179.5 -184.5t-260.5 -67.5q-150 0 -274 71 t-196.5 192.5t-72.5 269zM332 -190q53 -4 123 -5q59 0 93 30t34 87q0 53 -27 119l109 49q66 -37 101.5 -93t35.5 -130q0 -113 -85 -186.5t-233 -73.5q-79 0 -151 20v183z" />
<glyph unicode="&#xe8;" horiz-adv-x="1165" d="M80 505.5q0 147.5 69.5 269.5t191.5 191.5t269 69.5q139 0 248 -62.5t169 -170t60 -238.5q0 -73 -18 -151h-711q25 -96 99.5 -148.5t185.5 -52.5q150 0 283 102l114 -188q-180 -152 -405 -152q-158 0 -285 70t-198.5 191.5t-71.5 269zM229 1548v49h332l150 -428h-201z M358 608h461q-2 94 -65.5 149.5t-153.5 55.5q-88 0 -153.5 -55.5t-88.5 -149.5z" />
<glyph unicode="&#xe9;" horiz-adv-x="1165" d="M80 505.5q0 147.5 69.5 269.5t191.5 191.5t269 69.5q139 0 248 -62.5t169 -170t60 -238.5q0 -73 -18 -151h-711q25 -96 99.5 -148.5t185.5 -52.5q150 0 283 102l114 -188q-180 -152 -405 -152q-158 0 -285 70t-198.5 191.5t-71.5 269zM358 608h461q-2 94 -65.5 149.5 t-153.5 55.5q-88 0 -153.5 -55.5t-88.5 -149.5zM510 1169l149 428h332v-49l-280 -379h-201z" />
<glyph unicode="&#xea;" horiz-adv-x="1165" d="M80 505.5q0 147.5 69.5 269.5t191.5 191.5t269 69.5q139 0 248 -62.5t169 -170t60 -238.5q0 -73 -18 -151h-711q25 -96 99.5 -148.5t185.5 -52.5q150 0 283 102l114 -188q-180 -152 -405 -152q-158 0 -285 70t-198.5 191.5t-71.5 269zM244 1169l276 428h182l275 -428 h-203l-164 189l-164 -189h-202zM358 608h461q-2 94 -65.5 149.5t-153.5 55.5q-88 0 -153.5 -55.5t-88.5 -149.5z" />
<glyph unicode="&#xeb;" horiz-adv-x="1165" d="M80 505.5q0 147.5 69.5 269.5t191.5 191.5t269 69.5q139 0 248 -62.5t169 -170t60 -238.5q0 -73 -18 -151h-711q25 -96 99.5 -148.5t185.5 -52.5q150 0 283 102l114 -188q-180 -152 -405 -152q-158 0 -285 70t-198.5 191.5t-71.5 269zM201 1384.5q0 65.5 49 112.5t119 47 q66 0 114.5 -47t48.5 -112.5t-49 -112.5t-114 -47q-70 0 -119 47t-49 112.5zM358 608h461q-2 94 -65.5 149.5t-153.5 55.5q-88 0 -153.5 -55.5t-88.5 -149.5zM688 1384.5q0 65.5 49 112.5t119 47q66 0 115 -47t49 -112.5t-49 -112.5t-115 -47q-70 0 -119 47t-49 112.5z" />
<glyph unicode="&#xec;" horiz-adv-x="550" d="M-39 1548v49h332l88 -428h-201zM137 0v1014h277v-1014h-277z" />
<glyph unicode="&#xed;" horiz-adv-x="550" d="M137 0v1014h277v-1014h-277zM174 1169l88 428h332v-49l-219 -379h-201z" />
<glyph unicode="&#xee;" horiz-adv-x="550" d="M-90 1169l276 428h183l274 -428h-203l-164 189l-163 -189h-203zM137 0v1014h277v-1014h-277z" />
<glyph unicode="&#xef;" horiz-adv-x="550" d="M-115 1382q0 68 49.5 115t114.5 47q70 0 119 -47t49 -115q0 -63 -49 -110t-119 -47q-63 0 -113.5 48t-50.5 109zM137 0v1014h277v-1014h-277zM336 1382q0 68 50 115t116 47q68 0 117 -47t49 -115q0 -63 -49.5 -110t-116.5 -47q-64 0 -115 48t-51 109z" />
<glyph unicode="&#xf0;" horiz-adv-x="1173" d="M76 1141l243 121l-108 147l207 152l137 -183l319 158l99 -195l-283 -141l162 -213q82 -108 128 -179t80 -160t34 -183q0 -139 -65.5 -251t-181.5 -175.5t-257 -63.5q-147 0 -263 62.5t-181.5 171t-65.5 242t63.5 238t172 163.5t239.5 59h20l-124 170l-279 -137zM358 451 q0 -100 63.5 -165t164 -65t165 65.5t64.5 166t-64.5 165t-165 64.5t-164 -64.5t-63.5 -166.5z" />
<glyph unicode="&#xf1;" horiz-adv-x="1198" d="M137 0v1014h254v-92q53 53 130 83.5t167 30.5q176 0 278.5 -111.5t102.5 -295.5v-629h-274v592q0 88 -52.5 142t-136.5 54t-138 -54t-54 -142v-592h-277zM180 1276q0 127 66.5 202.5t165.5 75.5q76 0 147 -45l57 -36q27 -20 44.5 -28.5t37.5 -8.5q57 0 58 71v25h209 q6 -37 6 -70q0 -125 -66.5 -200.5t-167.5 -75.5q-75 0 -145 45l-57 35q-8 6 -24.5 17t-30 16.5t-27.5 5.5q-57 0 -58 -72v-25h-211q-4 23 -4 68z" />
<glyph unicode="&#xf2;" horiz-adv-x="1245" d="M80 507.5q0 145.5 71.5 267.5t196.5 191.5t274.5 69.5t274.5 -70.5t197.5 -191.5t72.5 -266.5t-72.5 -267t-198.5 -192.5t-275.5 -71t-273.5 71t-195.5 192.5t-71.5 267zM244 1548v49h331l150 -428h-201zM360 506q0 -119 74 -197t189 -78q112 0 187 78t75 197t-75 198.5 t-187 79.5q-115 0 -189 -78.5t-74 -199.5z" />
<glyph unicode="&#xf3;" horiz-adv-x="1245" d="M80 507.5q0 145.5 71.5 267.5t196.5 191.5t274.5 69.5t274.5 -70.5t197.5 -191.5t72.5 -266.5t-72.5 -267t-198.5 -192.5t-275.5 -71t-273.5 71t-195.5 192.5t-71.5 267zM360 506q0 -119 74 -197t189 -78q112 0 187 78t75 197t-75 198.5t-187 79.5q-115 0 -189 -78.5 t-74 -199.5zM522 1169l150 428h332v-49l-281 -379h-201z" />
<glyph unicode="&#xf4;" horiz-adv-x="1245" d="M80 507.5q0 145.5 71.5 267.5t196.5 191.5t274.5 69.5t274.5 -70.5t197.5 -191.5t72.5 -266.5t-72.5 -267t-198.5 -192.5t-275.5 -71t-273.5 71t-195.5 192.5t-71.5 267zM256 1169l276 428h183l274 -428h-203l-163 189l-164 -189h-203zM360 506q0 -119 74 -197t189 -78 q112 0 187 78t75 197t-75 198.5t-187 79.5q-115 0 -189 -78.5t-74 -199.5z" />
<glyph unicode="&#xf5;" horiz-adv-x="1245" d="M80 507.5q0 145.5 71.5 267.5t196.5 191.5t274.5 69.5t274.5 -70.5t197.5 -191.5t72.5 -266.5t-72.5 -267t-198.5 -192.5t-275.5 -71t-273.5 71t-195.5 192.5t-71.5 267zM227 1276q0 127 66.5 202.5t165.5 75.5q76 0 147 -45l58 -36q27 -20 44 -28.5t37 -8.5q57 0 58 71 v25h209q6 -37 6 -70q0 -125 -66.5 -200.5t-167.5 -75.5q-75 0 -145 45l-57 35q-8 6 -24.5 17t-30 16.5t-27.5 5.5q-57 0 -58 -72v-25h-211q-4 23 -4 68zM360 506q0 -119 74 -197t189 -78q112 0 187 78t75 197t-75 198.5t-187 79.5q-115 0 -189 -78.5t-74 -199.5z" />
<glyph unicode="&#xf6;" horiz-adv-x="1245" d="M80 507.5q0 145.5 71.5 267.5t196.5 191.5t274.5 69.5t274.5 -70.5t197.5 -191.5t72.5 -266.5t-72.5 -267t-198.5 -192.5t-275.5 -71t-273.5 71t-195.5 192.5t-71.5 267zM213 1384.5q0 65.5 49 112.5t119 47q66 0 115 -47t49 -112.5t-49.5 -112.5t-114.5 -47 q-70 0 -119 47t-49 112.5zM360 506q0 -119 74 -197t189 -78q112 0 187 78t75 197t-75 198.5t-187 79.5q-115 0 -189 -78.5t-74 -199.5zM700 1384.5q0 65.5 49.5 112.5t118.5 47q66 0 115 -47t49 -112.5t-49 -112.5t-115 -47q-69 0 -118.5 47t-49.5 112.5z" />
<glyph unicode="&#xf7;" d="M90 539v235h965v-235h-965zM403 270q0 68 49.5 113t118.5 45q68 0 117 -45t49 -113q0 -66 -49 -111.5t-117 -45.5q-69 0 -118.5 46t-49.5 111zM403 1040q0 66 49.5 111t118.5 45q68 0 117 -45t49 -111q0 -68 -49 -113.5t-117 -45.5q-69 0 -118.5 46t-49.5 113z" />
<glyph unicode="&#xf8;" horiz-adv-x="1253" d="M61 106l109 109q-86 127 -86 291q0 147 72.5 269t196.5 191.5t274 69.5q154 0 286 -78l113 113l166 -164l-109 -108q88 -133 88 -293q0 -147 -73.5 -268t-198.5 -192t-274 -71q-154 0 -287 78l-111 -112zM342 506q0 -72 25 -127l391 393q-59 31 -131 31q-125 0 -205 -83 t-80 -214zM492 240q59 -31 133 -31q125 0 205.5 83t80.5 214q0 72 -24 127z" />
<glyph unicode="&#xf9;" horiz-adv-x="1187" d="M127 446v568h276v-590q0 -88 54.5 -141.5t138.5 -53.5q80 0 134 53.5t54 141.5v590h277v-568q0 -141 -60.5 -247.5t-167 -165t-237.5 -58.5q-133 0 -240.5 58.5t-168 165t-60.5 247.5zM215 1548v49h332l149 -428h-200z" />
<glyph unicode="&#xfa;" horiz-adv-x="1187" d="M127 446v568h276v-590q0 -88 54.5 -141.5t138.5 -53.5q80 0 134 53.5t54 141.5v590h277v-568q0 -141 -60.5 -247.5t-167 -165t-237.5 -58.5q-133 0 -240.5 58.5t-168 165t-60.5 247.5zM494 1169l149 428h332v-49l-281 -379h-200z" />
<glyph unicode="&#xfb;" horiz-adv-x="1187" d="M127 446v568h276v-590q0 -88 54.5 -141.5t138.5 -53.5q80 0 134 53.5t54 141.5v590h277v-568q0 -141 -60.5 -247.5t-167 -165t-237.5 -58.5q-133 0 -240.5 58.5t-168 165t-60.5 247.5zM227 1169l277 428h182l275 -428h-203l-164 189l-164 -189h-203z" />
<glyph unicode="&#xfc;" horiz-adv-x="1187" d="M127 446v568h276v-590q0 -88 54.5 -141.5t138.5 -53.5q80 0 134 53.5t54 141.5v590h277v-568q0 -141 -60.5 -247.5t-167 -165t-237.5 -58.5q-133 0 -240.5 58.5t-168 165t-60.5 247.5zM184 1384.5q0 65.5 49.5 112.5t118.5 47q66 0 115 -47t49 -112.5t-49 -112.5 t-115 -47q-69 0 -118.5 47t-49.5 112.5zM672 1384.5q0 65.5 49 112.5t119 47q66 0 115 -47t49 -112.5t-49.5 -112.5t-114.5 -47q-70 0 -119 47t-49 112.5z" />
<glyph unicode="&#xfd;" horiz-adv-x="1144" d="M25 1014h292l248 -666l264 666h291l-485 -1102q-70 -158 -166 -231.5t-238 -73.5q-86 0 -178 24v232q94 -8 119 -8q74 0 125 28.5t86 108.5l31 69zM471 1169l150 428h331v-49l-280 -379h-201z" />
<glyph unicode="&#xfe;" horiz-adv-x="1288" d="M137 -369v1905h277v-621q111 121 303 121q141 0 252.5 -68.5t175 -188.5t63.5 -271.5t-63.5 -272t-175 -190.5t-252.5 -70q-92 0 -170 32t-133 91v-467h-277zM410 508q0 -135 74.5 -208t181.5 -73q110 0 186 77t76 202q0 127 -75 203.5t-187 76.5q-104 0 -180 -70.5 t-76 -207.5z" />
<glyph unicode="&#xff;" horiz-adv-x="1144" d="M25 1014h292l248 -666l264 666h291l-485 -1102q-70 -158 -166 -231.5t-238 -73.5q-86 0 -178 24v232q94 -8 119 -8q74 0 125 28.5t86 108.5l31 69zM162 1384.5q0 65.5 49 112.5t119 47q66 0 115 -47t49 -112.5t-49.5 -112.5t-114.5 -47q-70 0 -119 47t-49 112.5z M649 1384.5q0 65.5 49.5 112.5t118.5 47q66 0 115 -47t49 -112.5t-49 -112.5t-115 -47q-69 0 -118.5 47t-49.5 112.5z" />
<glyph unicode="&#x152;" horiz-adv-x="2248" d="M78 675.5q0 196.5 94 356.5t258 252t365 92q133 0 245.5 -44t190.5 -122v142h909v-250h-633v-275h467v-235h-467v-342h658v-250h-934v141q-80 -80 -193.5 -123t-244.5 -43q-199 0 -363 92.5t-258 252t-94 356zM362 674q0 -129 55.5 -229.5t155 -157t222.5 -56.5t223 56.5 t156.5 158t56.5 228.5q0 129 -56.5 230.5t-156.5 158.5t-223 57t-222.5 -57t-155 -158.5t-55.5 -230.5z" />
<glyph unicode="&#x153;" horiz-adv-x="1929" d="M80 505.5q0 147.5 72.5 269.5t195.5 191.5t268 69.5q119 0 217.5 -48t161.5 -136q68 86 167.5 135t217.5 49q135 0 243 -63.5t168 -171t60 -236.5q0 -75 -18 -153h-700q25 -96 96 -147.5t180 -51.5q150 0 281 102l114 -188q-86 -74 -188.5 -113t-212.5 -39 q-127 0 -231.5 49.5t-174.5 137.5q-66 -88 -163 -137.5t-218 -49.5q-145 0 -268 71t-195.5 191.5t-72.5 268zM360 506q0 -121 74 -199t187 -78q110 0 179.5 79t69.5 198q0 121 -69.5 199.5t-179.5 78.5q-113 0 -187 -78.5t-74 -199.5zM1130 606h453q-2 94 -64.5 150.5 t-152.5 56.5q-88 0 -151.5 -55.5t-84.5 -151.5z" />
<glyph unicode="&#x178;" horiz-adv-x="1277" d="M35 1352h307l299 -537l297 537h305l-465 -820v-532h-276v530zM207 1667q0 68 49 114t115 46q70 0 119 -46t49 -114q0 -63 -49.5 -110.5t-118.5 -47.5q-64 0 -114 48.5t-50 109.5zM735 1665q0 68 50.5 115t115.5 47q68 0 117 -47t49 -115q0 -63 -49 -110.5t-117 -47.5 q-63 0 -114.5 48.5t-51.5 109.5z" />
<glyph unicode="&#x2c6;" horiz-adv-x="1228" d="M248 1169l276 428h183l274 -428h-203l-164 189l-163 -189h-203z" />
<glyph unicode="&#x2dc;" horiz-adv-x="1228" d="M219 1276q0 127 66.5 202.5t165.5 75.5q76 0 147 -45l57 -36q27 -20 44.5 -28.5t37.5 -8.5q57 0 58 71v25h209q6 -37 6 -70q0 -125 -66.5 -200.5t-167.5 -75.5q-75 0 -145 45l-58 35q-8 6 -24.5 17t-29.5 16.5t-27 5.5q-57 0 -58 -72v-25h-211q-4 23 -4 68z" />
<glyph unicode="&#x2000;" horiz-adv-x="941" />
<glyph unicode="&#x2001;" horiz-adv-x="1882" />
<glyph unicode="&#x2002;" horiz-adv-x="941" />
<glyph unicode="&#x2003;" horiz-adv-x="1882" />
<glyph unicode="&#x2004;" horiz-adv-x="627" />
<glyph unicode="&#x2005;" horiz-adv-x="470" />
<glyph unicode="&#x2006;" horiz-adv-x="313" />
<glyph unicode="&#x2007;" horiz-adv-x="313" />
<glyph unicode="&#x2008;" horiz-adv-x="235" />
<glyph unicode="&#x2009;" horiz-adv-x="376" />
<glyph unicode="&#x200a;" horiz-adv-x="104" />
<glyph unicode="&#x2010;" horiz-adv-x="700" d="M92 541v231h516v-231h-516z" />
<glyph unicode="&#x2011;" horiz-adv-x="700" d="M92 541v231h516v-231h-516z" />
<glyph unicode="&#x2012;" horiz-adv-x="700" d="M92 541v231h516v-231h-516z" />
<glyph unicode="&#x2013;" horiz-adv-x="1028" d="M72 541v231h884v-231h-884z" />
<glyph unicode="&#x2014;" horiz-adv-x="2048" d="M102 541v231h1844v-231h-1844z" />
<glyph unicode="&#x2018;" horiz-adv-x="616" d="M121 782l115 570h210l-10 -570h-315z" />
<glyph unicode="&#x2019;" horiz-adv-x="616" d="M170 782l10 570h316l-115 -570h-211z" />
<glyph unicode="&#x201a;" horiz-adv-x="616" d="M170 -317l10 569h316l-115 -569h-211z" />
<glyph unicode="&#x201c;" horiz-adv-x="1101" d="M121 782l115 570h210l-10 -570h-315zM606 782l115 570h211l-10 -570h-316z" />
<glyph unicode="&#x201d;" horiz-adv-x="1101" d="M170 782l10 570h316l-115 -570h-211zM655 782l11 570h315l-115 -570h-211z" />
<glyph unicode="&#x201e;" horiz-adv-x="1101" d="M170 -317l10 569h316l-115 -569h-211zM655 -317l11 569h315l-115 -569h-211z" />
<glyph unicode="&#x2022;" horiz-adv-x="874" d="M104 555q0 92 45.5 166t122 117t166.5 43q92 0 168 -43t120 -117t44 -166q0 -90 -44 -165t-121 -117t-167 -42t-166.5 43t-122 117t-45.5 164z" />
<glyph unicode="&#x2026;" horiz-adv-x="1634" d="M96 166q0 80 55.5 135t137.5 55q80 0 134 -55t54 -135q0 -82 -53 -136.5t-135 -54.5t-137.5 54.5t-55.5 136.5zM627 166q0 80 55 135t137 55q80 0 134.5 -55t54.5 -135q0 -82 -53.5 -136.5t-135.5 -54.5t-137 54.5t-55 136.5zM1157 166q0 80 55.5 135t137.5 55 q80 0 134 -55t54 -135q0 -82 -53 -136.5t-135 -54.5t-137.5 54.5t-55.5 136.5z" />
<glyph unicode="&#x202f;" horiz-adv-x="376" />
<glyph unicode="&#x2039;" horiz-adv-x="696" d="M59 520v74l400 430l176 -154l-277 -311l277 -313l-176 -154z" />
<glyph unicode="&#x203a;" horiz-adv-x="696" d="M63 246l275 313l-275 311l177 154l397 -430v-74l-397 -428z" />
<glyph unicode="&#x205f;" horiz-adv-x="470" />
<glyph unicode="&#x20ac;" horiz-adv-x="1384" d="M4 414v196h164q-2 23 -2 68q0 37 2 55h-162v197h197q63 205 223 325.5t383 120.5q166 0 296 -68.5t200 -185.5l-193 -149q-49 68 -125 107.5t-170 39.5q-106 0 -186 -50t-127 -140h483l-53 -197h-483q-2 -18 -2 -57q0 -25 4 -66h444l-53 -196h-334q47 -86 126 -134.5 t181 -48.5q94 0 170 40t125 108l193 -150q-70 -117 -200 -185.5t-296 -68.5q-219 0 -378 119t-224 320h-203z" />
<glyph unicode="&#x2122;" horiz-adv-x="1978" d="M18 1145v207h791v-207h-281v-713h-229v713h-281zM940 432v936h76l391 -485l391 485h72v-936h-230v414l-198 -250h-74l-197 250v-414h-231z" />
<glyph unicode="&#x25fc;" horiz-adv-x="1013" d="M0 0v1014h1014v-1014h-1014z" />
</font>
</defs>
</svg>
